<mxfile host="app.diagrams.net" modified="2024-07-21T08:47:11.770Z" agent="Mozilla/5.0 (Windows NT 10.0; Win64; x64) AppleWebKit/537.36 (KHTML, like Gecko) Chrome/126.0.0.0 Safari/537.36" etag="XQp_jseG9ihNF29UF13m" version="24.6.5" type="device">
  <diagram name="Pagina-1" id="9yAY7zzcazfEjVNnhZRk">
    <mxGraphModel dx="26468" dy="5718" grid="0" gridSize="10" guides="1" tooltips="1" connect="1" arrows="1" fold="1" page="0" pageScale="1" pageWidth="827" pageHeight="1169" background="#FFFFFF" math="0" shadow="0">
      <root>
        <mxCell id="0" />
        <mxCell id="1" parent="0" />
        <mxCell id="iASLkcTXXLzT_OT9ee92-4" value="" style="edgeStyle=orthogonalEdgeStyle;rounded=0;orthogonalLoop=1;jettySize=auto;html=1;endArrow=none;endFill=0;labelBackgroundColor=none;fontColor=default;strokeColor=#09555B;" parent="1" source="iASLkcTXXLzT_OT9ee92-1" target="iASLkcTXXLzT_OT9ee92-3" edge="1">
          <mxGeometry relative="1" as="geometry" />
        </mxCell>
        <mxCell id="iASLkcTXXLzT_OT9ee92-188" style="edgeStyle=orthogonalEdgeStyle;rounded=0;orthogonalLoop=1;jettySize=auto;html=1;exitX=0.25;exitY=0;exitDx=0;exitDy=0;align=center;verticalAlign=middle;fontFamily=Helvetica;fontSize=11;fontColor=default;labelBackgroundColor=none;endArrow=oval;endFill=0;strokeColor=#09555B;" parent="1" source="iASLkcTXXLzT_OT9ee92-1" edge="1">
          <mxGeometry relative="1" as="geometry">
            <mxPoint x="-22772.875" y="-3013.5" as="targetPoint" />
          </mxGeometry>
        </mxCell>
        <mxCell id="iASLkcTXXLzT_OT9ee92-193" style="edgeStyle=orthogonalEdgeStyle;rounded=0;orthogonalLoop=1;jettySize=auto;html=1;exitX=0.75;exitY=1;exitDx=0;exitDy=0;align=center;verticalAlign=middle;fontFamily=Helvetica;fontSize=11;fontColor=default;labelBackgroundColor=none;endArrow=oval;endFill=0;strokeColor=#09555B;" parent="1" source="iASLkcTXXLzT_OT9ee92-1" edge="1">
          <mxGeometry relative="1" as="geometry">
            <mxPoint x="-22712.833333333332" y="-2913.5" as="targetPoint" />
          </mxGeometry>
        </mxCell>
        <mxCell id="pvKGCRZamBin-Z1_yLE3-3" style="edgeStyle=orthogonalEdgeStyle;rounded=0;orthogonalLoop=1;jettySize=auto;html=1;entryX=0;entryY=0.5;entryDx=0;entryDy=0;endArrow=none;endFill=0;labelBackgroundColor=none;fontColor=default;strokeColor=#09555B;" parent="1" source="iASLkcTXXLzT_OT9ee92-1" target="iASLkcTXXLzT_OT9ee92-55" edge="1">
          <mxGeometry relative="1" as="geometry">
            <Array as="points">
              <mxPoint x="-22660" y="-2930" />
              <mxPoint x="-22660" y="-2930" />
            </Array>
          </mxGeometry>
        </mxCell>
        <mxCell id="A8Oj2vjsRHP7mTtxIWq--29" style="edgeStyle=orthogonalEdgeStyle;rounded=0;orthogonalLoop=1;jettySize=auto;html=1;entryX=0;entryY=0.5;entryDx=0;entryDy=0;endArrow=none;endFill=0;labelBackgroundColor=none;strokeColor=#09555B;fontColor=default;" parent="1" source="iASLkcTXXLzT_OT9ee92-1" target="A8Oj2vjsRHP7mTtxIWq--28" edge="1">
          <mxGeometry relative="1" as="geometry" />
        </mxCell>
        <mxCell id="iASLkcTXXLzT_OT9ee92-1" value="reparto" style="rounded=0;whiteSpace=wrap;html=1;labelBackgroundColor=none;fillColor=#FAD9D5;strokeColor=#D0CEE2;fontColor=#1A1A1A;" parent="1" vertex="1">
          <mxGeometry x="-22803" y="-2990" width="120" height="60" as="geometry" />
        </mxCell>
        <mxCell id="iASLkcTXXLzT_OT9ee92-6" value="" style="edgeStyle=orthogonalEdgeStyle;rounded=0;orthogonalLoop=1;jettySize=auto;html=1;endArrow=none;endFill=0;labelBackgroundColor=none;fontColor=default;strokeColor=#09555B;" parent="1" source="iASLkcTXXLzT_OT9ee92-3" target="iASLkcTXXLzT_OT9ee92-5" edge="1">
          <mxGeometry relative="1" as="geometry" />
        </mxCell>
        <mxCell id="iASLkcTXXLzT_OT9ee92-3" value="contiene" style="rhombus;whiteSpace=wrap;html=1;rounded=0;labelBackgroundColor=none;fillColor=#FAD9D5;strokeColor=#D0CEE2;fontColor=#1A1A1A;" parent="1" vertex="1">
          <mxGeometry x="-22783" y="-2790" width="80" height="80" as="geometry" />
        </mxCell>
        <mxCell id="iASLkcTXXLzT_OT9ee92-8" value="" style="edgeStyle=orthogonalEdgeStyle;rounded=0;orthogonalLoop=1;jettySize=auto;html=1;endArrow=none;endFill=0;labelBackgroundColor=none;fontColor=default;strokeColor=#09555B;" parent="1" source="iASLkcTXXLzT_OT9ee92-5" target="iASLkcTXXLzT_OT9ee92-7" edge="1">
          <mxGeometry relative="1" as="geometry" />
        </mxCell>
        <mxCell id="iASLkcTXXLzT_OT9ee92-185" style="edgeStyle=orthogonalEdgeStyle;rounded=0;orthogonalLoop=1;jettySize=auto;html=1;exitX=0.75;exitY=0;exitDx=0;exitDy=0;align=center;verticalAlign=middle;fontFamily=Helvetica;fontSize=11;fontColor=default;labelBackgroundColor=none;endArrow=oval;endFill=0;strokeColor=#09555B;" parent="1" edge="1">
          <mxGeometry relative="1" as="geometry">
            <mxPoint x="-22723.236842105263" y="-2660" as="targetPoint" />
            <mxPoint x="-22723.5" y="-2640" as="sourcePoint" />
          </mxGeometry>
        </mxCell>
        <mxCell id="uytOqJaW_EU_-kI0tps7-4" style="edgeStyle=orthogonalEdgeStyle;rounded=0;orthogonalLoop=1;jettySize=auto;html=1;exitX=1;exitY=0.25;exitDx=0;exitDy=0;strokeColor=#09555B;fontColor=default;endArrow=oval;endFill=0;labelBackgroundColor=none;" parent="1" source="iASLkcTXXLzT_OT9ee92-5" edge="1">
          <mxGeometry relative="1" as="geometry">
            <mxPoint x="-22660" y="-2624.936507936508" as="targetPoint" />
          </mxGeometry>
        </mxCell>
        <mxCell id="iASLkcTXXLzT_OT9ee92-5" value="stanza" style="whiteSpace=wrap;html=1;rounded=0;labelBackgroundColor=none;fillColor=#FAD9D5;strokeColor=#D0CEE2;fontColor=#1A1A1A;" parent="1" vertex="1">
          <mxGeometry x="-22803" y="-2640" width="120" height="60" as="geometry" />
        </mxCell>
        <mxCell id="iASLkcTXXLzT_OT9ee92-7" value="contiene" style="rhombus;whiteSpace=wrap;html=1;rounded=0;labelBackgroundColor=none;fillColor=#FAD9D5;strokeColor=#D0CEE2;fontColor=#1A1A1A;" parent="1" vertex="1">
          <mxGeometry x="-22530" y="-2650" width="80" height="80" as="geometry" />
        </mxCell>
        <mxCell id="iASLkcTXXLzT_OT9ee92-181" value="" style="edgeStyle=orthogonalEdgeStyle;rounded=0;orthogonalLoop=1;jettySize=auto;html=1;align=center;verticalAlign=middle;fontFamily=Helvetica;fontSize=11;fontColor=default;labelBackgroundColor=none;endArrow=none;endFill=0;strokeColor=#09555B;" parent="1" source="iASLkcTXXLzT_OT9ee92-11" target="iASLkcTXXLzT_OT9ee92-7" edge="1">
          <mxGeometry relative="1" as="geometry" />
        </mxCell>
        <mxCell id="iASLkcTXXLzT_OT9ee92-11" value="letto" style="whiteSpace=wrap;html=1;rounded=0;labelBackgroundColor=none;fillColor=#FAD9D5;strokeColor=#D0CEE2;fontColor=#1A1A1A;" parent="1" vertex="1">
          <mxGeometry x="-22550" y="-2470" width="120" height="60" as="geometry" />
        </mxCell>
        <mxCell id="iASLkcTXXLzT_OT9ee92-13" value="occupato" style="rhombus;whiteSpace=wrap;html=1;rounded=0;labelBackgroundColor=none;fillColor=#FAD9D5;strokeColor=#D0CEE2;fontColor=#1A1A1A;" parent="1" vertex="1">
          <mxGeometry x="-22531" y="-2320" width="80" height="80" as="geometry" />
        </mxCell>
        <mxCell id="iASLkcTXXLzT_OT9ee92-18" value="" style="edgeStyle=orthogonalEdgeStyle;rounded=0;orthogonalLoop=1;jettySize=auto;html=1;endArrow=none;endFill=0;labelBackgroundColor=none;fontColor=default;strokeColor=#09555B;" parent="1" source="iASLkcTXXLzT_OT9ee92-15" target="iASLkcTXXLzT_OT9ee92-17" edge="1">
          <mxGeometry relative="1" as="geometry" />
        </mxCell>
        <mxCell id="iASLkcTXXLzT_OT9ee92-210" style="edgeStyle=orthogonalEdgeStyle;rounded=0;orthogonalLoop=1;jettySize=auto;html=1;exitX=0.75;exitY=0;exitDx=0;exitDy=0;align=center;verticalAlign=middle;fontFamily=Helvetica;fontSize=11;fontColor=default;labelBackgroundColor=none;endArrow=oval;endFill=0;strokeColor=#09555B;" parent="1" source="iASLkcTXXLzT_OT9ee92-15" edge="1">
          <mxGeometry relative="1" as="geometry">
            <mxPoint x="-22448.64285714286" y="-2218" as="targetPoint" />
          </mxGeometry>
        </mxCell>
        <mxCell id="iASLkcTXXLzT_OT9ee92-212" style="edgeStyle=orthogonalEdgeStyle;rounded=0;orthogonalLoop=1;jettySize=auto;html=1;exitX=0.152;exitY=1.003;exitDx=0;exitDy=0;align=center;verticalAlign=middle;fontFamily=Helvetica;fontSize=11;fontColor=default;labelBackgroundColor=none;endArrow=oval;endFill=0;strokeColor=#09555B;exitPerimeter=0;" parent="1" source="iASLkcTXXLzT_OT9ee92-15" edge="1">
          <mxGeometry relative="1" as="geometry">
            <mxPoint x="-22520" y="-2118" as="targetPoint" />
            <Array as="points">
              <mxPoint x="-22520" y="-2138" />
            </Array>
          </mxGeometry>
        </mxCell>
        <mxCell id="eyZ5qENP4nm9uY7_rV8y-87" value="" style="edgeStyle=orthogonalEdgeStyle;rounded=0;orthogonalLoop=1;jettySize=auto;html=1;endArrow=none;endFill=0;labelBackgroundColor=none;fontColor=default;strokeColor=#09555B;" parent="1" source="iASLkcTXXLzT_OT9ee92-15" target="eyZ5qENP4nm9uY7_rV8y-86" edge="1">
          <mxGeometry relative="1" as="geometry">
            <Array as="points">
              <mxPoint x="-22567" y="-2166" />
              <mxPoint x="-22567" y="-2166" />
            </Array>
          </mxGeometry>
        </mxCell>
        <mxCell id="iASLkcTXXLzT_OT9ee92-15" value="ricovero" style="whiteSpace=wrap;html=1;rounded=0;labelBackgroundColor=none;fillColor=#FAD9D5;strokeColor=#D0CEE2;fontColor=#1A1A1A;" parent="1" vertex="1">
          <mxGeometry x="-22538.5" y="-2198" width="120" height="60" as="geometry" />
        </mxCell>
        <mxCell id="iASLkcTXXLzT_OT9ee92-20" value="" style="edgeStyle=orthogonalEdgeStyle;rounded=0;orthogonalLoop=1;jettySize=auto;html=1;endArrow=none;endFill=0;labelBackgroundColor=none;fontColor=default;strokeColor=#09555B;" parent="1" source="iASLkcTXXLzT_OT9ee92-17" target="iASLkcTXXLzT_OT9ee92-19" edge="1">
          <mxGeometry relative="1" as="geometry" />
        </mxCell>
        <mxCell id="iASLkcTXXLzT_OT9ee92-17" value="ricoverato" style="rhombus;whiteSpace=wrap;html=1;rounded=0;labelBackgroundColor=none;fillColor=#FAD9D5;strokeColor=#D0CEE2;fontColor=#1A1A1A;" parent="1" vertex="1">
          <mxGeometry x="-22518.5" y="-2069.5" width="80" height="80" as="geometry" />
        </mxCell>
        <mxCell id="iASLkcTXXLzT_OT9ee92-195" style="edgeStyle=orthogonalEdgeStyle;rounded=0;orthogonalLoop=1;jettySize=auto;html=1;exitX=0.75;exitY=0;exitDx=0;exitDy=0;align=center;verticalAlign=middle;fontFamily=Helvetica;fontSize=11;fontColor=default;labelBackgroundColor=none;endArrow=oval;endFill=1;strokeColor=#09555B;" parent="1" edge="1">
          <mxGeometry relative="1" as="geometry">
            <mxPoint x="-22245.77023255814" y="-2079.5" as="targetPoint" />
            <mxPoint x="-22245.84" y="-2059.5" as="sourcePoint" />
            <Array as="points">
              <mxPoint x="-22246.09" y="-2070" />
              <mxPoint x="-22246.09" y="-2070" />
            </Array>
          </mxGeometry>
        </mxCell>
        <mxCell id="iASLkcTXXLzT_OT9ee92-197" style="edgeStyle=orthogonalEdgeStyle;rounded=0;orthogonalLoop=1;jettySize=auto;html=1;exitX=1;exitY=0;exitDx=0;exitDy=0;align=center;verticalAlign=middle;fontFamily=Helvetica;fontSize=11;fontColor=default;labelBackgroundColor=none;endArrow=oval;endFill=0;strokeColor=#09555B;" parent="1" edge="1">
          <mxGeometry relative="1" as="geometry">
            <mxPoint x="-22216.76" y="-1999.6930232558138" as="targetPoint" />
            <mxPoint x="-22236.76" y="-1999.6" as="sourcePoint" />
          </mxGeometry>
        </mxCell>
        <mxCell id="iASLkcTXXLzT_OT9ee92-198" style="edgeStyle=orthogonalEdgeStyle;rounded=0;orthogonalLoop=1;jettySize=auto;html=1;exitX=1;exitY=0.25;exitDx=0;exitDy=0;align=center;verticalAlign=middle;fontFamily=Helvetica;fontSize=11;fontColor=default;labelBackgroundColor=none;endArrow=oval;endFill=0;strokeColor=#09555B;" parent="1" source="iASLkcTXXLzT_OT9ee92-19" edge="1">
          <mxGeometry relative="1" as="geometry">
            <mxPoint x="-22216.75" y="-2044.7093023255811" as="targetPoint" />
          </mxGeometry>
        </mxCell>
        <mxCell id="iASLkcTXXLzT_OT9ee92-199" style="edgeStyle=orthogonalEdgeStyle;rounded=0;orthogonalLoop=1;jettySize=auto;html=1;exitX=1;exitY=0.5;exitDx=0;exitDy=0;align=center;verticalAlign=middle;fontFamily=Helvetica;fontSize=11;fontColor=default;labelBackgroundColor=none;endArrow=oval;endFill=0;strokeColor=#09555B;" parent="1" source="iASLkcTXXLzT_OT9ee92-19" edge="1">
          <mxGeometry relative="1" as="geometry">
            <mxPoint x="-22216.75" y="-2029.360465116279" as="targetPoint" />
          </mxGeometry>
        </mxCell>
        <mxCell id="iASLkcTXXLzT_OT9ee92-200" style="edgeStyle=orthogonalEdgeStyle;rounded=0;orthogonalLoop=1;jettySize=auto;html=1;exitX=1;exitY=0.75;exitDx=0;exitDy=0;align=center;verticalAlign=middle;fontFamily=Helvetica;fontSize=11;fontColor=default;labelBackgroundColor=none;endArrow=oval;endFill=0;strokeColor=#09555B;" parent="1" source="iASLkcTXXLzT_OT9ee92-19" edge="1">
          <mxGeometry relative="1" as="geometry">
            <mxPoint x="-22216.75" y="-2014.4767441860463" as="targetPoint" />
          </mxGeometry>
        </mxCell>
        <mxCell id="iASLkcTXXLzT_OT9ee92-19" value="paziente" style="whiteSpace=wrap;html=1;rounded=0;labelBackgroundColor=none;fillColor=#FAD9D5;strokeColor=#D0CEE2;fontColor=#1A1A1A;" parent="1" vertex="1">
          <mxGeometry x="-22356.75" y="-2059.5" width="120" height="60" as="geometry" />
        </mxCell>
        <mxCell id="iASLkcTXXLzT_OT9ee92-24" value="" style="edgeStyle=orthogonalEdgeStyle;rounded=0;orthogonalLoop=1;jettySize=auto;html=1;endArrow=none;endFill=0;labelBackgroundColor=none;fontColor=default;strokeColor=#09555B;" parent="1" source="iASLkcTXXLzT_OT9ee92-21" target="iASLkcTXXLzT_OT9ee92-23" edge="1">
          <mxGeometry relative="1" as="geometry" />
        </mxCell>
        <mxCell id="pvKGCRZamBin-Z1_yLE3-5" style="edgeStyle=orthogonalEdgeStyle;rounded=0;orthogonalLoop=1;jettySize=auto;html=1;entryX=0;entryY=0.5;entryDx=0;entryDy=0;endArrow=none;endFill=0;labelBackgroundColor=none;fontColor=default;strokeColor=#09555B;" parent="1" source="iASLkcTXXLzT_OT9ee92-21" target="iASLkcTXXLzT_OT9ee92-1" edge="1">
          <mxGeometry relative="1" as="geometry" />
        </mxCell>
        <mxCell id="iASLkcTXXLzT_OT9ee92-21" value="compone" style="rhombus;whiteSpace=wrap;html=1;rounded=0;labelBackgroundColor=none;fillColor=#FAD9D5;strokeColor=#D0CEE2;fontColor=#1A1A1A;" parent="1" vertex="1">
          <mxGeometry x="-23086" y="-3000" width="80" height="80" as="geometry" />
        </mxCell>
        <mxCell id="iASLkcTXXLzT_OT9ee92-110" style="edgeStyle=orthogonalEdgeStyle;rounded=0;orthogonalLoop=1;jettySize=auto;html=1;exitX=0;exitY=0;exitDx=0;exitDy=0;align=center;verticalAlign=middle;fontFamily=Helvetica;fontSize=11;fontColor=default;labelBackgroundColor=none;endArrow=oval;endFill=1;strokeColor=#09555B;" parent="1" source="iASLkcTXXLzT_OT9ee92-23" edge="1">
          <mxGeometry relative="1" as="geometry">
            <mxPoint x="-23105.927835051545" y="-3380" as="targetPoint" />
          </mxGeometry>
        </mxCell>
        <mxCell id="iASLkcTXXLzT_OT9ee92-112" style="edgeStyle=orthogonalEdgeStyle;rounded=0;orthogonalLoop=1;jettySize=auto;html=1;exitX=0.25;exitY=0;exitDx=0;exitDy=0;align=center;verticalAlign=middle;fontFamily=Helvetica;fontSize=11;fontColor=default;labelBackgroundColor=none;endArrow=oval;endFill=0;strokeColor=#09555B;" parent="1" source="iASLkcTXXLzT_OT9ee92-23" edge="1">
          <mxGeometry relative="1" as="geometry">
            <mxPoint x="-23076.03092783505" y="-3380" as="targetPoint" />
          </mxGeometry>
        </mxCell>
        <mxCell id="iASLkcTXXLzT_OT9ee92-114" style="edgeStyle=orthogonalEdgeStyle;rounded=0;orthogonalLoop=1;jettySize=auto;html=1;align=center;verticalAlign=middle;fontFamily=Helvetica;fontSize=11;fontColor=default;labelBackgroundColor=none;endArrow=oval;endFill=0;strokeColor=#09555B;" parent="1" edge="1">
          <mxGeometry relative="1" as="geometry">
            <mxPoint x="-22986.25" y="-3377" as="targetPoint" />
            <mxPoint x="-22986.237012987014" y="-3357" as="sourcePoint" />
          </mxGeometry>
        </mxCell>
        <mxCell id="iASLkcTXXLzT_OT9ee92-119" style="edgeStyle=orthogonalEdgeStyle;rounded=0;orthogonalLoop=1;jettySize=auto;html=1;exitX=1;exitY=0.5;exitDx=0;exitDy=0;align=center;verticalAlign=middle;fontFamily=Helvetica;fontSize=11;fontColor=default;labelBackgroundColor=none;endArrow=oval;endFill=0;strokeColor=#09555B;" parent="1" source="iASLkcTXXLzT_OT9ee92-23" edge="1">
          <mxGeometry relative="1" as="geometry">
            <mxPoint x="-22966" y="-3330" as="targetPoint" />
          </mxGeometry>
        </mxCell>
        <mxCell id="pvKGCRZamBin-Z1_yLE3-8" style="edgeStyle=orthogonalEdgeStyle;rounded=0;orthogonalLoop=1;jettySize=auto;html=1;exitX=0;exitY=0.5;exitDx=0;exitDy=0;entryX=0.5;entryY=0;entryDx=0;entryDy=0;endArrow=none;endFill=0;labelBackgroundColor=none;fontColor=default;strokeColor=#09555B;" parent="1" source="iASLkcTXXLzT_OT9ee92-23" target="iASLkcTXXLzT_OT9ee92-25" edge="1">
          <mxGeometry relative="1" as="geometry" />
        </mxCell>
        <mxCell id="A8Oj2vjsRHP7mTtxIWq--33" style="edgeStyle=orthogonalEdgeStyle;rounded=0;orthogonalLoop=1;jettySize=auto;html=1;exitX=0.75;exitY=0;exitDx=0;exitDy=0;endArrow=oval;endFill=0;entryX=0.502;entryY=1.088;entryDx=0;entryDy=0;entryPerimeter=0;labelBackgroundColor=none;strokeColor=#09555B;fontColor=default;" parent="1" source="iASLkcTXXLzT_OT9ee92-23" target="iASLkcTXXLzT_OT9ee92-115" edge="1">
          <mxGeometry relative="1" as="geometry" />
        </mxCell>
        <mxCell id="iASLkcTXXLzT_OT9ee92-23" value="ospedale" style="whiteSpace=wrap;html=1;rounded=0;labelBackgroundColor=none;fillColor=#FAD9D5;strokeColor=#D0CEE2;fontColor=#1A1A1A;" parent="1" vertex="1">
          <mxGeometry x="-23106" y="-3360" width="120" height="60" as="geometry" />
        </mxCell>
        <mxCell id="iASLkcTXXLzT_OT9ee92-25" value="utilizza" style="rhombus;whiteSpace=wrap;html=1;rounded=0;labelBackgroundColor=none;fillColor=#FAD9D5;strokeColor=#D0CEE2;fontColor=#1A1A1A;" parent="1" vertex="1">
          <mxGeometry x="-23172" y="-2852" width="80" height="80" as="geometry" />
        </mxCell>
        <mxCell id="iASLkcTXXLzT_OT9ee92-123" style="edgeStyle=orthogonalEdgeStyle;rounded=0;orthogonalLoop=1;jettySize=auto;html=1;exitX=0.25;exitY=1;exitDx=0;exitDy=0;align=center;verticalAlign=middle;fontFamily=Helvetica;fontSize=11;fontColor=default;labelBackgroundColor=none;endArrow=oval;endFill=0;strokeColor=#09555B;" parent="1" source="iASLkcTXXLzT_OT9ee92-31" edge="1">
          <mxGeometry relative="1" as="geometry">
            <mxPoint x="-23156.027027027027" y="-2565" as="targetPoint" />
          </mxGeometry>
        </mxCell>
        <mxCell id="iASLkcTXXLzT_OT9ee92-125" style="edgeStyle=orthogonalEdgeStyle;rounded=0;orthogonalLoop=1;jettySize=auto;html=1;exitX=0.75;exitY=1;exitDx=0;exitDy=0;align=center;verticalAlign=middle;fontFamily=Helvetica;fontSize=11;fontColor=default;labelBackgroundColor=none;endArrow=oval;endFill=0;strokeColor=#09555B;" parent="1" source="iASLkcTXXLzT_OT9ee92-31" edge="1">
          <mxGeometry relative="1" as="geometry">
            <mxPoint x="-23096.027027027027" y="-2565" as="targetPoint" />
          </mxGeometry>
        </mxCell>
        <mxCell id="pvKGCRZamBin-Z1_yLE3-6" style="edgeStyle=orthogonalEdgeStyle;rounded=0;orthogonalLoop=1;jettySize=auto;html=1;entryX=0;entryY=0.5;entryDx=0;entryDy=0;exitX=0.5;exitY=1;exitDx=0;exitDy=0;endArrow=none;endFill=0;labelBackgroundColor=none;fontColor=default;strokeColor=#09555B;" parent="1" source="iASLkcTXXLzT_OT9ee92-31" target="iASLkcTXXLzT_OT9ee92-37" edge="1">
          <mxGeometry relative="1" as="geometry" />
        </mxCell>
        <mxCell id="5s077RPclw-HT7UrMDog-59" value="" style="edgeStyle=orthogonalEdgeStyle;rounded=0;orthogonalLoop=1;jettySize=auto;html=1;strokeColor=#09555B;align=center;verticalAlign=middle;fontFamily=Helvetica;fontSize=11;fontColor=default;labelBackgroundColor=none;endArrow=none;endFill=0;" parent="1" source="iASLkcTXXLzT_OT9ee92-31" target="5s077RPclw-HT7UrMDog-58" edge="1">
          <mxGeometry relative="1" as="geometry" />
        </mxCell>
        <mxCell id="iASLkcTXXLzT_OT9ee92-31" value="laboratorio&lt;div&gt;esterno&lt;/div&gt;" style="rounded=0;whiteSpace=wrap;html=1;labelBackgroundColor=none;fillColor=#FAD9D5;strokeColor=#D0CEE2;fontColor=#1A1A1A;" parent="1" vertex="1">
          <mxGeometry x="-23176" y="-2645" width="120" height="60" as="geometry" />
        </mxCell>
        <mxCell id="iASLkcTXXLzT_OT9ee92-36" value="" style="edgeStyle=orthogonalEdgeStyle;rounded=0;orthogonalLoop=1;jettySize=auto;html=1;endArrow=none;endFill=0;labelBackgroundColor=none;fontColor=default;strokeColor=#09555B;" parent="1" source="iASLkcTXXLzT_OT9ee92-34" target="iASLkcTXXLzT_OT9ee92-5" edge="1">
          <mxGeometry relative="1" as="geometry">
            <Array as="points">
              <mxPoint x="-22826" y="-2615" />
              <mxPoint x="-22826" y="-2615" />
            </Array>
          </mxGeometry>
        </mxCell>
        <mxCell id="A8Oj2vjsRHP7mTtxIWq--102" value="" style="edgeStyle=orthogonalEdgeStyle;rounded=0;orthogonalLoop=1;jettySize=auto;html=1;strokeColor=#09555B;fontColor=default;endArrow=none;endFill=0;labelBackgroundColor=none;" parent="1" source="iASLkcTXXLzT_OT9ee92-34" target="A8Oj2vjsRHP7mTtxIWq--101" edge="1">
          <mxGeometry relative="1" as="geometry" />
        </mxCell>
        <mxCell id="iASLkcTXXLzT_OT9ee92-34" value="occupa" style="rhombus;whiteSpace=wrap;html=1;rounded=0;labelBackgroundColor=none;fillColor=#FAD9D5;strokeColor=#D0CEE2;fontColor=#1A1A1A;" parent="1" vertex="1">
          <mxGeometry x="-22976" y="-2655" width="80" height="80" as="geometry" />
        </mxCell>
        <mxCell id="iASLkcTXXLzT_OT9ee92-37" value="presso" style="rhombus;whiteSpace=wrap;html=1;rounded=0;labelBackgroundColor=none;fillColor=#FAD9D5;strokeColor=#D0CEE2;fontColor=#1A1A1A;" parent="1" vertex="1">
          <mxGeometry x="-22866" y="-2368" width="80" height="80" as="geometry" />
        </mxCell>
        <mxCell id="iASLkcTXXLzT_OT9ee92-46" style="edgeStyle=orthogonalEdgeStyle;rounded=0;orthogonalLoop=1;jettySize=auto;html=1;entryX=1;entryY=0.5;entryDx=0;entryDy=0;endArrow=none;endFill=0;labelBackgroundColor=none;fontColor=default;strokeColor=#09555B;" parent="1" source="iASLkcTXXLzT_OT9ee92-44" target="iASLkcTXXLzT_OT9ee92-37" edge="1">
          <mxGeometry relative="1" as="geometry">
            <mxPoint x="-23631" y="-2336" as="targetPoint" />
          </mxGeometry>
        </mxCell>
        <mxCell id="iASLkcTXXLzT_OT9ee92-104" value="" style="edgeStyle=orthogonalEdgeStyle;rounded=0;orthogonalLoop=1;jettySize=auto;html=1;align=center;verticalAlign=middle;fontFamily=Helvetica;fontSize=11;fontColor=default;labelBackgroundColor=none;endArrow=none;endFill=0;strokeColor=#09555B;" parent="1" source="iASLkcTXXLzT_OT9ee92-44" target="iASLkcTXXLzT_OT9ee92-103" edge="1">
          <mxGeometry relative="1" as="geometry" />
        </mxCell>
        <mxCell id="iASLkcTXXLzT_OT9ee92-174" style="edgeStyle=orthogonalEdgeStyle;rounded=0;orthogonalLoop=1;jettySize=auto;html=1;exitX=0.75;exitY=0;exitDx=0;exitDy=0;align=center;verticalAlign=middle;fontFamily=Helvetica;fontSize=11;fontColor=default;labelBackgroundColor=none;endArrow=oval;endFill=0;strokeColor=#09555B;" parent="1" source="iASLkcTXXLzT_OT9ee92-44" edge="1">
          <mxGeometry relative="1" as="geometry">
            <mxPoint x="-22217.97435897436" y="-2376" as="targetPoint" />
          </mxGeometry>
        </mxCell>
        <mxCell id="pvKGCRZamBin-Z1_yLE3-38" style="edgeStyle=orthogonalEdgeStyle;rounded=0;orthogonalLoop=1;jettySize=auto;html=1;exitX=0;exitY=0.25;exitDx=0;exitDy=0;fontColor=default;endArrow=oval;endFill=0;labelBackgroundColor=none;strokeColor=#09555B;" parent="1" source="iASLkcTXXLzT_OT9ee92-44" edge="1">
          <mxGeometry relative="1" as="geometry">
            <mxPoint x="-22327" y="-2343.078431372549" as="targetPoint" />
          </mxGeometry>
        </mxCell>
        <mxCell id="pvKGCRZamBin-Z1_yLE3-41" style="edgeStyle=orthogonalEdgeStyle;rounded=0;orthogonalLoop=1;jettySize=auto;html=1;exitX=0;exitY=1;exitDx=0;exitDy=0;fontColor=default;endArrow=oval;endFill=0;labelBackgroundColor=none;strokeColor=#09555B;" parent="1" source="iASLkcTXXLzT_OT9ee92-44" edge="1">
          <mxGeometry relative="1" as="geometry">
            <mxPoint x="-22327" y="-2297.969465648855" as="targetPoint" />
          </mxGeometry>
        </mxCell>
        <mxCell id="iASLkcTXXLzT_OT9ee92-44" value="prenotazione" style="whiteSpace=wrap;html=1;rounded=0;labelBackgroundColor=none;fillColor=#FAD9D5;strokeColor=#D0CEE2;fontColor=#1A1A1A;" parent="1" vertex="1">
          <mxGeometry x="-22308.5" y="-2358" width="120" height="60" as="geometry" />
        </mxCell>
        <mxCell id="A8Oj2vjsRHP7mTtxIWq--60" style="edgeStyle=orthogonalEdgeStyle;rounded=0;orthogonalLoop=1;jettySize=auto;html=1;endArrow=none;endFill=0;labelBackgroundColor=none;strokeColor=#09555B;fontColor=default;" parent="1" source="iASLkcTXXLzT_OT9ee92-49" target="A8Oj2vjsRHP7mTtxIWq--61" edge="1">
          <mxGeometry relative="1" as="geometry">
            <mxPoint x="-22420" y="-3518" as="targetPoint" />
          </mxGeometry>
        </mxCell>
        <mxCell id="iASLkcTXXLzT_OT9ee92-49" value="turni medici" style="whiteSpace=wrap;html=1;rounded=0;labelBackgroundColor=none;fillColor=#FAD9D5;strokeColor=#D0CEE2;fontColor=#1A1A1A;" parent="1" vertex="1">
          <mxGeometry x="-22612" y="-3548" width="120" height="60" as="geometry" />
        </mxCell>
        <mxCell id="ERPnFefsP54BphPaziVe-23" style="edgeStyle=orthogonalEdgeStyle;rounded=0;orthogonalLoop=1;jettySize=auto;html=1;exitX=1;exitY=0.5;exitDx=0;exitDy=0;endArrow=none;endFill=0;entryX=0.5;entryY=1;entryDx=0;entryDy=0;labelBackgroundColor=none;fontColor=default;strokeColor=#09555B;" parent="1" source="iASLkcTXXLzT_OT9ee92-85" target="RbMR6hmsyGio7f3lNEcu-17" edge="1">
          <mxGeometry relative="1" as="geometry">
            <mxPoint x="-22011.148397963058" y="-3294.7894736842104" as="targetPoint" />
          </mxGeometry>
        </mxCell>
        <mxCell id="A8Oj2vjsRHP7mTtxIWq--22" value="" style="edgeStyle=orthogonalEdgeStyle;rounded=0;orthogonalLoop=1;jettySize=auto;html=1;labelBackgroundColor=none;strokeColor=#09555B;fontColor=default;endArrow=none;endFill=0;" parent="1" source="iASLkcTXXLzT_OT9ee92-55" target="A8Oj2vjsRHP7mTtxIWq--21" edge="1">
          <mxGeometry relative="1" as="geometry" />
        </mxCell>
        <mxCell id="iASLkcTXXLzT_OT9ee92-55" value="lavora presso" style="rhombus;whiteSpace=wrap;html=1;rounded=0;labelBackgroundColor=none;fillColor=#FAD9D5;strokeColor=#D0CEE2;fontColor=#1A1A1A;" parent="1" vertex="1">
          <mxGeometry x="-22563" y="-2970" width="80" height="80" as="geometry" />
        </mxCell>
        <mxCell id="iASLkcTXXLzT_OT9ee92-96" value="" style="edgeStyle=orthogonalEdgeStyle;rounded=0;orthogonalLoop=1;jettySize=auto;html=1;align=center;verticalAlign=middle;fontFamily=Helvetica;fontSize=11;fontColor=default;labelBackgroundColor=none;endArrow=none;endFill=0;strokeColor=#09555B;" parent="1" source="iASLkcTXXLzT_OT9ee92-93" edge="1">
          <mxGeometry relative="1" as="geometry">
            <mxPoint x="-22143.5" y="-2750" as="targetPoint" />
          </mxGeometry>
        </mxCell>
        <mxCell id="iASLkcTXXLzT_OT9ee92-93" value="effettua" style="rhombus;whiteSpace=wrap;html=1;fontSize=11;rounded=0;labelBackgroundColor=none;fillColor=#FAD9D5;strokeColor=#D0CEE2;fontColor=#1A1A1A;" parent="1" vertex="1">
          <mxGeometry x="-22385" y="-2950" width="80" height="80" as="geometry" />
        </mxCell>
        <mxCell id="iASLkcTXXLzT_OT9ee92-98" value="" style="edgeStyle=orthogonalEdgeStyle;rounded=0;orthogonalLoop=1;jettySize=auto;html=1;align=center;verticalAlign=middle;fontFamily=Helvetica;fontSize=11;fontColor=default;labelBackgroundColor=none;endArrow=none;endFill=0;strokeColor=#09555B;" parent="1" source="iASLkcTXXLzT_OT9ee92-95" target="iASLkcTXXLzT_OT9ee92-97" edge="1">
          <mxGeometry relative="1" as="geometry" />
        </mxCell>
        <mxCell id="iASLkcTXXLzT_OT9ee92-108" value="" style="edgeStyle=orthogonalEdgeStyle;rounded=0;orthogonalLoop=1;jettySize=auto;html=1;align=center;verticalAlign=middle;fontFamily=Helvetica;fontSize=11;fontColor=default;labelBackgroundColor=none;endArrow=none;endFill=0;strokeColor=#09555B;" parent="1" source="iASLkcTXXLzT_OT9ee92-95" target="iASLkcTXXLzT_OT9ee92-107" edge="1">
          <mxGeometry relative="1" as="geometry" />
        </mxCell>
        <mxCell id="RbMR6hmsyGio7f3lNEcu-44" style="edgeStyle=orthogonalEdgeStyle;rounded=0;orthogonalLoop=1;jettySize=auto;html=1;exitX=0.25;exitY=0;exitDx=0;exitDy=0;endArrow=oval;endFill=0;labelBackgroundColor=none;fontColor=default;strokeColor=#09555B;" parent="1" source="iASLkcTXXLzT_OT9ee92-95" edge="1">
          <mxGeometry relative="1" as="geometry">
            <mxPoint x="-22176.021276595744" y="-2770" as="targetPoint" />
          </mxGeometry>
        </mxCell>
        <mxCell id="RbMR6hmsyGio7f3lNEcu-46" style="edgeStyle=orthogonalEdgeStyle;rounded=0;orthogonalLoop=1;jettySize=auto;html=1;exitX=0.25;exitY=1;exitDx=0;exitDy=0;endArrow=oval;endFill=1;labelBackgroundColor=none;fontColor=default;strokeColor=#09555B;" parent="1" source="iASLkcTXXLzT_OT9ee92-95" edge="1">
          <mxGeometry relative="1" as="geometry">
            <mxPoint x="-22176.021276595744" y="-2670" as="targetPoint" />
          </mxGeometry>
        </mxCell>
        <mxCell id="5s077RPclw-HT7UrMDog-13" style="edgeStyle=orthogonalEdgeStyle;rounded=0;orthogonalLoop=1;jettySize=auto;html=1;exitX=0.75;exitY=0;exitDx=0;exitDy=0;strokeColor=#09555B;fontColor=default;endArrow=oval;endFill=0;labelBackgroundColor=none;" parent="1" source="iASLkcTXXLzT_OT9ee92-95" edge="1">
          <mxGeometry relative="1" as="geometry">
            <mxPoint x="-22116.09677419355" y="-2770" as="targetPoint" />
          </mxGeometry>
        </mxCell>
        <mxCell id="iASLkcTXXLzT_OT9ee92-95" value="prescrizione" style="whiteSpace=wrap;html=1;fontSize=11;rounded=0;labelBackgroundColor=none;fillColor=#FAD9D5;strokeColor=#D0CEE2;fontColor=#1A1A1A;" parent="1" vertex="1">
          <mxGeometry x="-22206" y="-2750" width="120" height="60" as="geometry" />
        </mxCell>
        <mxCell id="iASLkcTXXLzT_OT9ee92-100" value="" style="edgeStyle=orthogonalEdgeStyle;rounded=0;orthogonalLoop=1;jettySize=auto;html=1;align=center;verticalAlign=middle;fontFamily=Helvetica;fontSize=11;fontColor=default;labelBackgroundColor=none;endArrow=none;endFill=0;strokeColor=#09555B;" parent="1" source="iASLkcTXXLzT_OT9ee92-97" target="iASLkcTXXLzT_OT9ee92-99" edge="1">
          <mxGeometry relative="1" as="geometry">
            <Array as="points">
              <mxPoint x="-21880" y="-2720" />
              <mxPoint x="-21880" y="-2720" />
            </Array>
          </mxGeometry>
        </mxCell>
        <mxCell id="iASLkcTXXLzT_OT9ee92-97" value="prescritto" style="rhombus;whiteSpace=wrap;html=1;fontSize=11;rounded=0;labelBackgroundColor=none;fillColor=#FAD9D5;strokeColor=#D0CEE2;fontColor=#1A1A1A;" parent="1" vertex="1">
          <mxGeometry x="-21986" y="-2760" width="80" height="80" as="geometry" />
        </mxCell>
        <mxCell id="iASLkcTXXLzT_OT9ee92-165" style="edgeStyle=orthogonalEdgeStyle;rounded=0;orthogonalLoop=1;jettySize=auto;html=1;exitX=0;exitY=0;exitDx=0;exitDy=0;align=center;verticalAlign=middle;fontFamily=Helvetica;fontSize=11;fontColor=default;labelBackgroundColor=none;endArrow=oval;endFill=1;strokeColor=#09555B;" parent="1" source="iASLkcTXXLzT_OT9ee92-99" edge="1">
          <mxGeometry relative="1" as="geometry">
            <mxPoint x="-21867" y="-2769" as="targetPoint" />
          </mxGeometry>
        </mxCell>
        <mxCell id="iASLkcTXXLzT_OT9ee92-167" style="edgeStyle=orthogonalEdgeStyle;rounded=0;orthogonalLoop=1;jettySize=auto;html=1;exitX=0.25;exitY=0;exitDx=0;exitDy=0;align=center;verticalAlign=middle;fontFamily=Helvetica;fontSize=11;fontColor=default;labelBackgroundColor=none;endArrow=oval;endFill=0;strokeColor=#09555B;" parent="1" source="iASLkcTXXLzT_OT9ee92-99" edge="1">
          <mxGeometry relative="1" as="geometry">
            <mxPoint x="-21837" y="-2799" as="targetPoint" />
          </mxGeometry>
        </mxCell>
        <mxCell id="iASLkcTXXLzT_OT9ee92-172" style="edgeStyle=orthogonalEdgeStyle;rounded=0;orthogonalLoop=1;jettySize=auto;html=1;exitX=0.75;exitY=1;exitDx=0;exitDy=0;align=center;verticalAlign=middle;fontFamily=Helvetica;fontSize=11;fontColor=default;labelBackgroundColor=none;endArrow=oval;endFill=0;strokeColor=#09555B;" parent="1" source="iASLkcTXXLzT_OT9ee92-99" edge="1">
          <mxGeometry relative="1" as="geometry">
            <mxPoint x="-21780" y="-2670" as="targetPoint" />
            <mxPoint x="-21776.87" y="-2655" as="sourcePoint" />
          </mxGeometry>
        </mxCell>
        <mxCell id="iASLkcTXXLzT_OT9ee92-99" value="esame" style="whiteSpace=wrap;html=1;fontSize=11;rounded=0;labelBackgroundColor=none;fillColor=#FAD9D5;strokeColor=#D0CEE2;fontColor=#1A1A1A;" parent="1" vertex="1">
          <mxGeometry x="-21867" y="-2749" width="120" height="60" as="geometry" />
        </mxCell>
        <mxCell id="iASLkcTXXLzT_OT9ee92-106" style="edgeStyle=orthogonalEdgeStyle;rounded=0;orthogonalLoop=1;jettySize=auto;html=1;entryX=0.5;entryY=1;entryDx=0;entryDy=0;align=center;verticalAlign=middle;fontFamily=Helvetica;fontSize=11;fontColor=default;labelBackgroundColor=none;endArrow=none;endFill=0;strokeColor=#09555B;" parent="1" source="iASLkcTXXLzT_OT9ee92-103" target="iASLkcTXXLzT_OT9ee92-99" edge="1">
          <mxGeometry relative="1" as="geometry" />
        </mxCell>
        <mxCell id="iASLkcTXXLzT_OT9ee92-103" value="riferito" style="rhombus;whiteSpace=wrap;html=1;rounded=0;labelBackgroundColor=none;fillColor=#FAD9D5;strokeColor=#D0CEE2;fontColor=#1A1A1A;" parent="1" vertex="1">
          <mxGeometry x="-22086" y="-2368" width="80" height="80" as="geometry" />
        </mxCell>
        <mxCell id="pvKGCRZamBin-Z1_yLE3-43" style="edgeStyle=orthogonalEdgeStyle;rounded=0;orthogonalLoop=1;jettySize=auto;html=1;entryX=0;entryY=0;entryDx=0;entryDy=0;fontColor=default;endArrow=none;endFill=0;labelBackgroundColor=none;strokeColor=#09555B;" parent="1" source="iASLkcTXXLzT_OT9ee92-107" target="iASLkcTXXLzT_OT9ee92-19" edge="1">
          <mxGeometry relative="1" as="geometry" />
        </mxCell>
        <mxCell id="iASLkcTXXLzT_OT9ee92-107" value="riferito" style="rhombus;whiteSpace=wrap;html=1;fontSize=11;rounded=0;labelBackgroundColor=none;fillColor=#FAD9D5;strokeColor=#D0CEE2;fontColor=#1A1A1A;" parent="1" vertex="1">
          <mxGeometry x="-22396" y="-2760" width="80" height="80" as="geometry" />
        </mxCell>
        <mxCell id="iASLkcTXXLzT_OT9ee92-111" value="Code" style="text;html=1;align=center;verticalAlign=middle;resizable=0;points=[];autosize=1;strokeColor=none;fillColor=none;fontFamily=Helvetica;fontSize=11;labelBackgroundColor=none;rounded=0;fontColor=#1A1A1A;" parent="1" vertex="1">
          <mxGeometry x="-23132" y="-3410" width="50" height="30" as="geometry" />
        </mxCell>
        <mxCell id="iASLkcTXXLzT_OT9ee92-113" value="via" style="text;html=1;align=center;verticalAlign=middle;resizable=0;points=[];autosize=1;strokeColor=none;fillColor=none;fontFamily=Helvetica;fontSize=11;labelBackgroundColor=none;rounded=0;fontColor=#1A1A1A;" parent="1" vertex="1">
          <mxGeometry x="-23096" y="-3410" width="40" height="30" as="geometry" />
        </mxCell>
        <mxCell id="iASLkcTXXLzT_OT9ee92-115" value="n civico" style="text;html=1;align=center;verticalAlign=middle;resizable=0;points=[];autosize=1;strokeColor=none;fillColor=none;fontFamily=Helvetica;fontSize=11;labelBackgroundColor=none;rounded=0;fontColor=#1A1A1A;" parent="1" vertex="1">
          <mxGeometry x="-23046" y="-3410" width="60" height="30" as="geometry" />
        </mxCell>
        <mxCell id="iASLkcTXXLzT_OT9ee92-118" value="Cap" style="text;html=1;align=center;verticalAlign=middle;resizable=0;points=[];autosize=1;strokeColor=none;fillColor=none;fontFamily=Helvetica;fontSize=11;labelBackgroundColor=none;rounded=0;fontColor=#1A1A1A;" parent="1" vertex="1">
          <mxGeometry x="-23001" y="-3410" width="40" height="30" as="geometry" />
        </mxCell>
        <mxCell id="iASLkcTXXLzT_OT9ee92-120" value="nome" style="text;html=1;align=center;verticalAlign=middle;resizable=0;points=[];autosize=1;strokeColor=none;fillColor=none;fontFamily=Helvetica;fontSize=11;labelBackgroundColor=none;rounded=0;fontColor=#1A1A1A;" parent="1" vertex="1">
          <mxGeometry x="-22976" y="-3360" width="50" height="30" as="geometry" />
        </mxCell>
        <mxCell id="iASLkcTXXLzT_OT9ee92-124" value="indirizzo" style="text;html=1;align=center;verticalAlign=middle;resizable=0;points=[];autosize=1;strokeColor=none;fillColor=none;fontFamily=Helvetica;fontSize=11;labelBackgroundColor=none;rounded=0;fontColor=#1A1A1A;" parent="1" vertex="1">
          <mxGeometry x="-23196" y="-2567" width="60" height="30" as="geometry" />
        </mxCell>
        <mxCell id="iASLkcTXXLzT_OT9ee92-126" value="telefono" style="text;html=1;align=center;verticalAlign=middle;resizable=0;points=[];autosize=1;strokeColor=none;fillColor=none;fontFamily=Helvetica;fontSize=11;labelBackgroundColor=none;rounded=0;fontColor=#1A1A1A;" parent="1" vertex="1">
          <mxGeometry x="-23126" y="-2567" width="60" height="30" as="geometry" />
        </mxCell>
        <mxCell id="iASLkcTXXLzT_OT9ee92-137" value="DATETIMEInit" style="text;html=1;align=center;verticalAlign=middle;resizable=0;points=[];autosize=1;strokeColor=none;fillColor=none;fontFamily=Helvetica;fontSize=11;labelBackgroundColor=none;rounded=0;fontColor=#1A1A1A;" parent="1" vertex="1">
          <mxGeometry x="-22642" y="-3600" width="90" height="30" as="geometry" />
        </mxCell>
        <mxCell id="iASLkcTXXLzT_OT9ee92-141" value="DATETIMEfine" style="text;html=1;align=center;verticalAlign=middle;resizable=0;points=[];autosize=1;strokeColor=none;fillColor=none;fontFamily=Helvetica;fontSize=11;labelBackgroundColor=none;rounded=0;fontColor=#1A1A1A;" parent="1" vertex="1">
          <mxGeometry x="-22558" y="-3600" width="100" height="30" as="geometry" />
        </mxCell>
        <mxCell id="iASLkcTXXLzT_OT9ee92-145" value="" style="endArrow=oval;html=1;rounded=0;align=center;verticalAlign=middle;fontFamily=Helvetica;fontSize=11;fontColor=default;labelBackgroundColor=none;edgeStyle=orthogonalEdgeStyle;endFill=1;strokeColor=#09555B;" parent="1" edge="1">
          <mxGeometry width="50" height="50" relative="1" as="geometry">
            <mxPoint x="-22560" y="-3480" as="sourcePoint" />
            <mxPoint x="-22482" y="-3508" as="targetPoint" />
            <Array as="points">
              <mxPoint x="-22620" y="-3558" />
              <mxPoint x="-22482" y="-3558" />
            </Array>
          </mxGeometry>
        </mxCell>
        <mxCell id="iASLkcTXXLzT_OT9ee92-166" value="codEs" style="text;html=1;align=center;verticalAlign=middle;resizable=0;points=[];autosize=1;strokeColor=none;fillColor=none;fontFamily=Helvetica;fontSize=11;labelBackgroundColor=none;rounded=0;fontColor=#1A1A1A;" parent="1" vertex="1">
          <mxGeometry x="-21892" y="-2801" width="50" height="30" as="geometry" />
        </mxCell>
        <mxCell id="iASLkcTXXLzT_OT9ee92-168" value="descrizione" style="text;html=1;align=center;verticalAlign=middle;resizable=0;points=[];autosize=1;strokeColor=none;fillColor=none;fontFamily=Helvetica;fontSize=11;labelBackgroundColor=none;rounded=0;fontColor=#1A1A1A;" parent="1" vertex="1">
          <mxGeometry x="-21882" y="-2831" width="80" height="30" as="geometry" />
        </mxCell>
        <mxCell id="iASLkcTXXLzT_OT9ee92-171" value="costoPub" style="text;html=1;align=center;verticalAlign=middle;resizable=0;points=[];autosize=1;strokeColor=none;fillColor=none;fontFamily=Helvetica;fontSize=11;labelBackgroundColor=none;rounded=0;fontColor=#1A1A1A;" parent="1" vertex="1">
          <mxGeometry x="-21882" y="-2665" width="70" height="30" as="geometry" />
        </mxCell>
        <mxCell id="iASLkcTXXLzT_OT9ee92-173" value="costoPriv" style="text;html=1;align=center;verticalAlign=middle;resizable=0;points=[];autosize=1;strokeColor=none;fillColor=none;fontFamily=Helvetica;fontSize=11;labelBackgroundColor=none;rounded=0;fontColor=#1A1A1A;" parent="1" vertex="1">
          <mxGeometry x="-21802" y="-2665" width="70" height="30" as="geometry" />
        </mxCell>
        <mxCell id="iASLkcTXXLzT_OT9ee92-175" value="dataPren" style="text;html=1;align=center;verticalAlign=middle;resizable=0;points=[];autosize=1;strokeColor=none;fillColor=none;fontFamily=Helvetica;fontSize=11;labelBackgroundColor=none;rounded=0;fontColor=#1A1A1A;" parent="1" vertex="1">
          <mxGeometry x="-22391" y="-2320" width="70" height="30" as="geometry" />
        </mxCell>
        <mxCell id="iASLkcTXXLzT_OT9ee92-176" value="" style="endArrow=oval;html=1;rounded=0;align=center;verticalAlign=middle;fontFamily=Helvetica;fontSize=11;fontColor=default;labelBackgroundColor=none;edgeStyle=orthogonalEdgeStyle;startArrow=none;startFill=0;endFill=1;strokeColor=#09555B;" parent="1" edge="1">
          <mxGeometry width="50" height="50" relative="1" as="geometry">
            <mxPoint x="-22236" y="-2368" as="sourcePoint" />
            <mxPoint x="-22297" y="-2290" as="targetPoint" />
            <Array as="points">
              <mxPoint x="-22176" y="-2368" />
              <mxPoint x="-22176" y="-2290" />
              <mxPoint x="-22236" y="-2290" />
            </Array>
          </mxGeometry>
        </mxCell>
        <mxCell id="iASLkcTXXLzT_OT9ee92-180" value="urgenza" style="text;html=1;align=center;verticalAlign=middle;resizable=0;points=[];autosize=1;strokeColor=none;fillColor=none;fontFamily=Helvetica;fontSize=11;labelBackgroundColor=none;rounded=0;fontColor=#1A1A1A;" parent="1" vertex="1">
          <mxGeometry x="-22365" y="-2376" width="60" height="30" as="geometry" />
        </mxCell>
        <mxCell id="iASLkcTXXLzT_OT9ee92-186" value="numero" style="text;html=1;align=center;verticalAlign=middle;resizable=0;points=[];autosize=1;strokeColor=none;fillColor=none;fontFamily=Helvetica;fontSize=11;labelBackgroundColor=none;rounded=0;fontColor=#1A1A1A;" parent="1" vertex="1">
          <mxGeometry x="-22743" y="-2689" width="60" height="30" as="geometry" />
        </mxCell>
        <mxCell id="iASLkcTXXLzT_OT9ee92-189" value="nome" style="text;html=1;align=center;verticalAlign=middle;resizable=0;points=[];autosize=1;strokeColor=none;fillColor=none;fontFamily=Helvetica;fontSize=11;labelBackgroundColor=none;rounded=0;fontColor=#1A1A1A;" parent="1" vertex="1">
          <mxGeometry x="-22798" y="-3043.5" width="50" height="30" as="geometry" />
        </mxCell>
        <mxCell id="iASLkcTXXLzT_OT9ee92-190" value="" style="endArrow=none;html=1;rounded=0;align=center;verticalAlign=middle;fontFamily=Helvetica;fontSize=11;fontColor=default;labelBackgroundColor=none;edgeStyle=orthogonalEdgeStyle;endFill=0;startArrow=oval;startFill=1;strokeColor=#09555B;" parent="1" edge="1">
          <mxGeometry width="50" height="50" relative="1" as="geometry">
            <mxPoint x="-22816" y="-2950" as="sourcePoint" />
            <mxPoint x="-22756" y="-3000" as="targetPoint" />
            <Array as="points">
              <mxPoint x="-22816" y="-3000" />
            </Array>
          </mxGeometry>
        </mxCell>
        <mxCell id="iASLkcTXXLzT_OT9ee92-194" value="telefono" style="text;html=1;align=center;verticalAlign=middle;resizable=0;points=[];autosize=1;strokeColor=none;fillColor=none;fontFamily=Helvetica;fontSize=11;labelBackgroundColor=none;rounded=0;fontColor=#1A1A1A;" parent="1" vertex="1">
          <mxGeometry x="-22743" y="-2915.5" width="60" height="30" as="geometry" />
        </mxCell>
        <mxCell id="iASLkcTXXLzT_OT9ee92-196" value="nTesSanitaria" style="text;html=1;align=center;verticalAlign=middle;resizable=0;points=[];autosize=1;strokeColor=none;fillColor=none;fontFamily=Helvetica;fontSize=11;labelBackgroundColor=none;rounded=0;fontColor=#1A1A1A;" parent="1" vertex="1">
          <mxGeometry x="-22283" y="-2117.5" width="90" height="30" as="geometry" />
        </mxCell>
        <mxCell id="iASLkcTXXLzT_OT9ee92-201" value="nome" style="text;html=1;align=center;verticalAlign=middle;resizable=0;points=[];autosize=1;strokeColor=none;fillColor=none;fontFamily=Helvetica;fontSize=11;labelBackgroundColor=none;rounded=0;fontColor=#1A1A1A;" parent="1" vertex="1">
          <mxGeometry x="-22218" y="-2062" width="50" height="30" as="geometry" />
        </mxCell>
        <mxCell id="iASLkcTXXLzT_OT9ee92-202" value="cognome" style="text;html=1;align=center;verticalAlign=middle;resizable=0;points=[];autosize=1;strokeColor=none;fillColor=none;fontFamily=Helvetica;fontSize=11;labelBackgroundColor=none;rounded=0;fontColor=#1A1A1A;" parent="1" vertex="1">
          <mxGeometry x="-22218" y="-2044.5" width="70" height="30" as="geometry" />
        </mxCell>
        <mxCell id="iASLkcTXXLzT_OT9ee92-203" value="dataNascita" style="text;html=1;align=center;verticalAlign=middle;resizable=0;points=[];autosize=1;strokeColor=none;fillColor=none;fontFamily=Helvetica;fontSize=11;labelBackgroundColor=none;rounded=0;fontColor=#1A1A1A;" parent="1" vertex="1">
          <mxGeometry x="-22218.5" y="-2029.5" width="80" height="30" as="geometry" />
        </mxCell>
        <mxCell id="iASLkcTXXLzT_OT9ee92-204" value="indirizzo" style="text;html=1;align=center;verticalAlign=middle;resizable=0;points=[];autosize=1;strokeColor=none;fillColor=none;fontFamily=Helvetica;fontSize=11;labelBackgroundColor=none;rounded=0;fontColor=#1A1A1A;" parent="1" vertex="1">
          <mxGeometry x="-22216" y="-2012" width="60" height="30" as="geometry" />
        </mxCell>
        <mxCell id="iASLkcTXXLzT_OT9ee92-211" value="DataRicovero" style="text;html=1;align=center;verticalAlign=middle;resizable=0;points=[];autosize=1;strokeColor=none;fillColor=none;fontFamily=Helvetica;fontSize=11;labelBackgroundColor=none;rounded=0;fontColor=#1A1A1A;" parent="1" vertex="1">
          <mxGeometry x="-22483.5" y="-2248" width="90" height="30" as="geometry" />
        </mxCell>
        <mxCell id="iASLkcTXXLzT_OT9ee92-213" value="DataDimissione (0,1)" style="text;html=1;align=center;verticalAlign=middle;resizable=0;points=[];autosize=1;strokeColor=none;fillColor=none;fontFamily=Helvetica;fontSize=11;labelBackgroundColor=none;rounded=0;fontColor=#1A1A1A;" parent="1" vertex="1">
          <mxGeometry x="-22608.5" y="-2117.5" width="130" height="30" as="geometry" />
        </mxCell>
        <mxCell id="iASLkcTXXLzT_OT9ee92-214" value="" style="endArrow=none;html=1;rounded=0;align=center;verticalAlign=middle;fontFamily=Helvetica;fontSize=11;fontColor=default;labelBackgroundColor=none;edgeStyle=orthogonalEdgeStyle;endFill=0;startArrow=oval;startFill=1;strokeColor=#09555B;" parent="1" edge="1">
          <mxGeometry width="50" height="50" relative="1" as="geometry">
            <mxPoint x="-22510" y="-2210" as="sourcePoint" />
            <mxPoint x="-22480" y="-2130" as="targetPoint" />
            <Array as="points">
              <mxPoint x="-22407" y="-2210" />
              <mxPoint x="-22407" y="-2130" />
              <mxPoint x="-22497" y="-2130" />
            </Array>
          </mxGeometry>
        </mxCell>
        <mxCell id="vZneiS7C8i41ovWJdTVS-22" value="" style="edgeLabel;html=1;align=center;verticalAlign=middle;resizable=0;points=[];strokeColor=#D0CEE2;fontColor=#1A1A1A;fillColor=#FAD9D5;labelBackgroundColor=none;" parent="iASLkcTXXLzT_OT9ee92-214" vertex="1" connectable="0">
          <mxGeometry x="0.0501" relative="1" as="geometry">
            <mxPoint as="offset" />
          </mxGeometry>
        </mxCell>
        <mxCell id="iASLkcTXXLzT_OT9ee92-222" value="" style="endArrow=oval;html=1;rounded=0;align=center;verticalAlign=middle;fontFamily=Helvetica;fontSize=11;fontColor=default;labelBackgroundColor=none;edgeStyle=orthogonalEdgeStyle;endFill=1;strokeColor=#09555B;" parent="1" edge="1">
          <mxGeometry width="50" height="50" relative="1" as="geometry">
            <mxPoint x="-22750" y="-2650" as="sourcePoint" />
            <mxPoint x="-22673" y="-2620" as="targetPoint" />
            <Array as="points">
              <mxPoint x="-22673" y="-2650" />
            </Array>
          </mxGeometry>
        </mxCell>
        <mxCell id="eyZ5qENP4nm9uY7_rV8y-2" value="(1,1)" style="text;html=1;align=center;verticalAlign=middle;resizable=0;points=[];autosize=1;strokeColor=none;fillColor=none;labelBackgroundColor=none;rounded=0;fontColor=#1A1A1A;" parent="1" vertex="1">
          <mxGeometry x="-22062" y="-3320" width="50" height="30" as="geometry" />
        </mxCell>
        <mxCell id="eyZ5qENP4nm9uY7_rV8y-3" value="(1,1)" style="text;html=1;align=center;verticalAlign=middle;resizable=0;points=[];autosize=1;strokeColor=none;fillColor=none;labelBackgroundColor=none;rounded=0;fontColor=#1A1A1A;" parent="1" vertex="1">
          <mxGeometry x="-22072" y="-3480" width="50" height="30" as="geometry" />
        </mxCell>
        <mxCell id="eyZ5qENP4nm9uY7_rV8y-5" value="(1,1)" style="text;html=1;align=center;verticalAlign=middle;resizable=0;points=[];autosize=1;strokeColor=none;fillColor=none;labelBackgroundColor=none;rounded=0;fontColor=#1A1A1A;" parent="1" vertex="1">
          <mxGeometry x="-22036" y="-2750" width="50" height="30" as="geometry" />
        </mxCell>
        <mxCell id="eyZ5qENP4nm9uY7_rV8y-6" value="(0,N)" style="text;html=1;align=center;verticalAlign=middle;resizable=0;points=[];autosize=1;strokeColor=none;fillColor=none;labelBackgroundColor=none;rounded=0;fontColor=#1A1A1A;" parent="1" vertex="1">
          <mxGeometry x="-21917" y="-2750" width="50" height="30" as="geometry" />
        </mxCell>
        <mxCell id="eyZ5qENP4nm9uY7_rV8y-7" value="(0,N)" style="text;html=1;align=center;verticalAlign=middle;resizable=0;points=[];autosize=1;strokeColor=none;fillColor=none;labelBackgroundColor=none;rounded=0;fontColor=#1A1A1A;" parent="1" vertex="1">
          <mxGeometry x="-22345" y="-2982.5" width="50" height="30" as="geometry" />
        </mxCell>
        <mxCell id="eyZ5qENP4nm9uY7_rV8y-8" value="(0,1)" style="text;html=1;align=center;verticalAlign=middle;resizable=0;points=[];autosize=1;strokeColor=none;fillColor=none;labelBackgroundColor=none;rounded=0;fontColor=#1A1A1A;" parent="1" vertex="1">
          <mxGeometry x="-22305" y="-2910" width="50" height="30" as="geometry" />
        </mxCell>
        <mxCell id="eyZ5qENP4nm9uY7_rV8y-9" value="(1,1)" style="text;html=1;align=center;verticalAlign=middle;resizable=0;points=[];autosize=1;strokeColor=none;fillColor=none;labelBackgroundColor=none;rounded=0;fontColor=#1A1A1A;" parent="1" vertex="1">
          <mxGeometry x="-22320" y="-2750" width="50" height="30" as="geometry" />
        </mxCell>
        <mxCell id="eyZ5qENP4nm9uY7_rV8y-10" value="(0,N)" style="text;html=1;align=center;verticalAlign=middle;resizable=0;points=[];autosize=1;strokeColor=none;fillColor=none;labelBackgroundColor=none;rounded=0;fontColor=#1A1A1A;" parent="1" vertex="1">
          <mxGeometry x="-22286.75" y="-2157.6" width="50" height="30" as="geometry" />
        </mxCell>
        <mxCell id="eyZ5qENP4nm9uY7_rV8y-11" value="(0,N)" style="text;html=1;align=center;verticalAlign=middle;resizable=0;points=[];autosize=1;strokeColor=none;fillColor=none;labelBackgroundColor=none;rounded=0;fontColor=#1A1A1A;" parent="1" vertex="1">
          <mxGeometry x="-22438.5" y="-2062" width="50" height="30" as="geometry" />
        </mxCell>
        <mxCell id="eyZ5qENP4nm9uY7_rV8y-12" value="(1,1)" style="text;html=1;align=center;verticalAlign=middle;resizable=0;points=[];autosize=1;strokeColor=none;fillColor=none;labelBackgroundColor=none;rounded=0;fontColor=#1A1A1A;" parent="1" vertex="1">
          <mxGeometry x="-22525" y="-2092" width="50" height="30" as="geometry" />
        </mxCell>
        <mxCell id="eyZ5qENP4nm9uY7_rV8y-13" value="(1,1)" style="text;html=1;align=center;verticalAlign=middle;resizable=0;points=[];autosize=1;strokeColor=none;fillColor=none;labelBackgroundColor=none;rounded=0;fontColor=#1A1A1A;" parent="1" vertex="1">
          <mxGeometry x="-22540" y="-2248" width="50" height="30" as="geometry" />
        </mxCell>
        <mxCell id="eyZ5qENP4nm9uY7_rV8y-14" value="(0,N)" style="text;html=1;align=center;verticalAlign=middle;resizable=0;points=[];autosize=1;strokeColor=none;fillColor=none;labelBackgroundColor=none;rounded=0;fontColor=#1A1A1A;" parent="1" vertex="1">
          <mxGeometry x="-22540" y="-2368" width="50" height="30" as="geometry" />
        </mxCell>
        <mxCell id="eyZ5qENP4nm9uY7_rV8y-15" value="(1,1)" style="text;html=1;align=center;verticalAlign=middle;resizable=0;points=[];autosize=1;strokeColor=none;fillColor=none;labelBackgroundColor=none;rounded=0;fontColor=#1A1A1A;" parent="1" vertex="1">
          <mxGeometry x="-22490" y="-2572" width="50" height="30" as="geometry" />
        </mxCell>
        <mxCell id="eyZ5qENP4nm9uY7_rV8y-16" value="(0,N)" style="text;html=1;align=center;verticalAlign=middle;resizable=0;points=[];autosize=1;strokeColor=none;fillColor=none;labelBackgroundColor=none;rounded=0;fontColor=#1A1A1A;" parent="1" vertex="1">
          <mxGeometry x="-22575" y="-2640" width="50" height="30" as="geometry" />
        </mxCell>
        <mxCell id="eyZ5qENP4nm9uY7_rV8y-17" value="(0,1)" style="text;html=1;align=center;verticalAlign=middle;resizable=0;points=[];autosize=1;strokeColor=none;fillColor=none;labelBackgroundColor=none;rounded=0;fontColor=#1A1A1A;" parent="1" vertex="1">
          <mxGeometry x="-22896" y="-2645" width="50" height="30" as="geometry" />
        </mxCell>
        <mxCell id="eyZ5qENP4nm9uY7_rV8y-19" value="(0,N)" style="text;html=1;align=center;verticalAlign=middle;resizable=0;points=[];autosize=1;strokeColor=none;fillColor=none;labelBackgroundColor=none;rounded=0;fontColor=#1A1A1A;" parent="1" vertex="1">
          <mxGeometry x="-23182" y="-2772" width="50" height="30" as="geometry" />
        </mxCell>
        <mxCell id="eyZ5qENP4nm9uY7_rV8y-20" value="(1,N)" style="text;html=1;align=center;verticalAlign=middle;resizable=0;points=[];autosize=1;strokeColor=none;fillColor=none;labelBackgroundColor=none;rounded=0;fontColor=#1A1A1A;" parent="1" vertex="1">
          <mxGeometry x="-23182" y="-2880" width="50" height="30" as="geometry" />
        </mxCell>
        <mxCell id="eyZ5qENP4nm9uY7_rV8y-25" value="(1,1)" style="text;html=1;align=center;verticalAlign=middle;resizable=0;points=[];autosize=1;strokeColor=none;fillColor=none;labelBackgroundColor=none;rounded=0;fontColor=#1A1A1A;" parent="1" vertex="1">
          <mxGeometry x="-22500" y="-2890" width="50" height="30" as="geometry" />
        </mxCell>
        <mxCell id="eyZ5qENP4nm9uY7_rV8y-26" value="(1,N)" style="text;html=1;align=center;verticalAlign=middle;resizable=0;points=[];autosize=1;strokeColor=none;fillColor=none;labelBackgroundColor=none;rounded=0;fontColor=#1A1A1A;" parent="1" vertex="1">
          <mxGeometry x="-22613" y="-2962" width="50" height="30" as="geometry" />
        </mxCell>
        <mxCell id="eyZ5qENP4nm9uY7_rV8y-31" value="(1,N)" style="text;html=1;align=center;verticalAlign=middle;resizable=0;points=[];autosize=1;strokeColor=none;fillColor=none;labelBackgroundColor=none;rounded=0;fontColor=#1A1A1A;" parent="1" vertex="1">
          <mxGeometry x="-22793" y="-2820" width="50" height="30" as="geometry" />
        </mxCell>
        <mxCell id="eyZ5qENP4nm9uY7_rV8y-32" value="(1,1)" style="text;html=1;align=center;verticalAlign=middle;resizable=0;points=[];autosize=1;strokeColor=none;fillColor=none;labelBackgroundColor=none;rounded=0;fontColor=#1A1A1A;" parent="1" vertex="1">
          <mxGeometry x="-22793" y="-2710" width="50" height="30" as="geometry" />
        </mxCell>
        <mxCell id="eyZ5qENP4nm9uY7_rV8y-35" value="(1,N)" style="text;html=1;align=center;verticalAlign=middle;resizable=0;points=[];autosize=1;strokeColor=none;fillColor=none;labelBackgroundColor=none;rounded=0;fontColor=#1A1A1A;" parent="1" vertex="1">
          <mxGeometry x="-23096" y="-3030" width="50" height="30" as="geometry" />
        </mxCell>
        <mxCell id="eyZ5qENP4nm9uY7_rV8y-37" value="(0,1)" style="text;html=1;align=center;verticalAlign=middle;resizable=0;points=[];autosize=1;strokeColor=none;fillColor=none;labelBackgroundColor=none;rounded=0;fontColor=#1A1A1A;" parent="1" vertex="1">
          <mxGeometry x="-22783" y="-2356" width="50" height="30" as="geometry" />
        </mxCell>
        <mxCell id="eyZ5qENP4nm9uY7_rV8y-40" value="(0,N)" style="text;html=1;align=center;verticalAlign=middle;resizable=0;points=[];autosize=1;strokeColor=none;fillColor=none;labelBackgroundColor=none;rounded=0;fontColor=#1A1A1A;" parent="1" vertex="1">
          <mxGeometry x="-22406.75" y="-2680" width="50" height="30" as="geometry" />
        </mxCell>
        <mxCell id="eyZ5qENP4nm9uY7_rV8y-42" value="(1,1)" style="text;html=1;align=center;verticalAlign=middle;resizable=0;points=[];autosize=1;strokeColor=none;fillColor=none;labelBackgroundColor=none;rounded=0;fontColor=#1A1A1A;" parent="1" vertex="1">
          <mxGeometry x="-22136" y="-2358" width="50" height="30" as="geometry" />
        </mxCell>
        <mxCell id="eyZ5qENP4nm9uY7_rV8y-43" value="(0,N)" style="text;html=1;align=center;verticalAlign=middle;resizable=0;points=[];autosize=1;strokeColor=none;fillColor=none;labelBackgroundColor=none;rounded=0;fontColor=#1A1A1A;" parent="1" vertex="1">
          <mxGeometry x="-22006" y="-2358" width="50" height="30" as="geometry" />
        </mxCell>
        <mxCell id="eyZ5qENP4nm9uY7_rV8y-51" value="(0,N)" style="text;html=1;align=center;verticalAlign=middle;resizable=0;points=[];autosize=1;strokeColor=none;fillColor=none;labelBackgroundColor=none;rounded=0;fontColor=#1A1A1A;" parent="1" vertex="1">
          <mxGeometry x="-22916" y="-2358" width="50" height="30" as="geometry" />
        </mxCell>
        <mxCell id="eyZ5qENP4nm9uY7_rV8y-55" value="" style="edgeStyle=orthogonalEdgeStyle;rounded=0;orthogonalLoop=1;jettySize=auto;html=1;endArrow=none;endFill=0;labelBackgroundColor=none;fontColor=default;strokeColor=#09555B;" parent="1" source="eyZ5qENP4nm9uY7_rV8y-52" target="eyZ5qENP4nm9uY7_rV8y-54" edge="1">
          <mxGeometry relative="1" as="geometry" />
        </mxCell>
        <mxCell id="eyZ5qENP4nm9uY7_rV8y-52" value="avere" style="rhombus;whiteSpace=wrap;html=1;fontSize=11;rounded=0;labelBackgroundColor=none;fillColor=#FAD9D5;strokeColor=#D0CEE2;fontColor=#1A1A1A;" parent="1" vertex="1">
          <mxGeometry x="-21677" y="-2689" width="80" height="80" as="geometry" />
        </mxCell>
        <mxCell id="5s077RPclw-HT7UrMDog-8" style="edgeStyle=orthogonalEdgeStyle;rounded=0;orthogonalLoop=1;jettySize=auto;html=1;exitX=0.25;exitY=1;exitDx=0;exitDy=0;strokeColor=#09555B;fontColor=default;endArrow=oval;endFill=1;labelBackgroundColor=none;" parent="1" source="eyZ5qENP4nm9uY7_rV8y-54" edge="1">
          <mxGeometry relative="1" as="geometry">
            <mxPoint x="-21667.032258064515" y="-2449" as="targetPoint" />
          </mxGeometry>
        </mxCell>
        <mxCell id="5s077RPclw-HT7UrMDog-10" style="edgeStyle=orthogonalEdgeStyle;rounded=0;orthogonalLoop=1;jettySize=auto;html=1;exitX=0.75;exitY=1;exitDx=0;exitDy=0;strokeColor=#09555B;fontColor=default;endArrow=oval;endFill=0;labelBackgroundColor=none;" parent="1" source="eyZ5qENP4nm9uY7_rV8y-54" edge="1">
          <mxGeometry relative="1" as="geometry">
            <mxPoint x="-21607.032258064515" y="-2449" as="targetPoint" />
          </mxGeometry>
        </mxCell>
        <mxCell id="eyZ5qENP4nm9uY7_rV8y-54" value="avvertenze" style="whiteSpace=wrap;html=1;fontSize=11;rounded=0;labelBackgroundColor=none;fillColor=#FAD9D5;strokeColor=#D0CEE2;fontColor=#1A1A1A;" parent="1" vertex="1">
          <mxGeometry x="-21697" y="-2532" width="120" height="60" as="geometry" />
        </mxCell>
        <mxCell id="eyZ5qENP4nm9uY7_rV8y-56" value="(0,1)" style="text;html=1;align=center;verticalAlign=middle;resizable=0;points=[];autosize=1;strokeColor=none;fillColor=none;labelBackgroundColor=none;rounded=0;fontColor=#1A1A1A;" parent="1" vertex="1">
          <mxGeometry x="-22146" y="-2612" width="50" height="30" as="geometry" />
        </mxCell>
        <mxCell id="eyZ5qENP4nm9uY7_rV8y-57" value="(1,N)" style="text;html=1;align=center;verticalAlign=middle;resizable=0;points=[];autosize=1;strokeColor=none;fillColor=none;labelBackgroundColor=none;rounded=0;fontColor=#1A1A1A;" parent="1" vertex="1">
          <mxGeometry x="-21637" y="-2611" width="50" height="30" as="geometry" />
        </mxCell>
        <mxCell id="eyZ5qENP4nm9uY7_rV8y-59" style="edgeStyle=orthogonalEdgeStyle;rounded=0;orthogonalLoop=1;jettySize=auto;html=1;entryX=1.003;entryY=0.4;entryDx=0;entryDy=0;entryPerimeter=0;exitX=0.5;exitY=0;exitDx=0;exitDy=0;endArrow=none;endFill=0;labelBackgroundColor=none;fontColor=default;strokeColor=#09555B;" parent="1" source="eyZ5qENP4nm9uY7_rV8y-52" target="iASLkcTXXLzT_OT9ee92-99" edge="1">
          <mxGeometry relative="1" as="geometry" />
        </mxCell>
        <mxCell id="eyZ5qENP4nm9uY7_rV8y-60" value="(0,N)" style="text;html=1;align=center;verticalAlign=middle;resizable=0;points=[];autosize=1;strokeColor=none;fillColor=none;labelBackgroundColor=none;rounded=0;fontColor=#1A1A1A;" parent="1" vertex="1">
          <mxGeometry x="-21637" y="-2719" width="50" height="30" as="geometry" />
        </mxCell>
        <mxCell id="eyZ5qENP4nm9uY7_rV8y-78" value="effettua" style="rhombus;whiteSpace=wrap;html=1;labelBackgroundColor=none;rounded=0;fillColor=#FAD9D5;strokeColor=#D0CEE2;fontColor=#1A1A1A;" parent="1" vertex="1">
          <mxGeometry x="-22325.84" y="-2237.6" width="80" height="80" as="geometry" />
        </mxCell>
        <mxCell id="eyZ5qENP4nm9uY7_rV8y-85" value="(1,1)" style="text;html=1;align=center;verticalAlign=middle;resizable=0;points=[];autosize=1;strokeColor=none;fillColor=none;labelBackgroundColor=none;rounded=0;fontColor=#1A1A1A;" parent="1" vertex="1">
          <mxGeometry x="-22286.75" y="-2267.6" width="50" height="30" as="geometry" />
        </mxCell>
        <mxCell id="eyZ5qENP4nm9uY7_rV8y-89" value="" style="edgeStyle=orthogonalEdgeStyle;rounded=0;orthogonalLoop=1;jettySize=auto;html=1;endArrow=none;endFill=0;labelBackgroundColor=none;fontColor=default;strokeColor=#09555B;" parent="1" source="eyZ5qENP4nm9uY7_rV8y-86" target="eyZ5qENP4nm9uY7_rV8y-88" edge="1">
          <mxGeometry relative="1" as="geometry" />
        </mxCell>
        <mxCell id="eyZ5qENP4nm9uY7_rV8y-86" value="motivazione" style="rhombus;whiteSpace=wrap;html=1;rounded=0;labelBackgroundColor=none;fillColor=#FAD9D5;strokeColor=#D0CEE2;fontColor=#1A1A1A;" parent="1" vertex="1">
          <mxGeometry x="-22747" y="-2206" width="80" height="80" as="geometry" />
        </mxCell>
        <mxCell id="eyZ5qENP4nm9uY7_rV8y-90" style="edgeStyle=orthogonalEdgeStyle;rounded=0;orthogonalLoop=1;jettySize=auto;html=1;exitX=0.75;exitY=0;exitDx=0;exitDy=0;endArrow=oval;endFill=1;labelBackgroundColor=none;fontColor=default;strokeColor=#09555B;" parent="1" source="eyZ5qENP4nm9uY7_rV8y-88" edge="1">
          <mxGeometry relative="1" as="geometry">
            <mxPoint x="-22845.8" y="-2216" as="targetPoint" />
          </mxGeometry>
        </mxCell>
        <mxCell id="eyZ5qENP4nm9uY7_rV8y-88" value="patologie" style="whiteSpace=wrap;html=1;rounded=0;labelBackgroundColor=none;fillColor=#FAD9D5;strokeColor=#D0CEE2;fontColor=#1A1A1A;" parent="1" vertex="1">
          <mxGeometry x="-22936" y="-2196" width="120" height="60" as="geometry" />
        </mxCell>
        <mxCell id="eyZ5qENP4nm9uY7_rV8y-91" value="Nome" style="text;html=1;align=center;verticalAlign=middle;resizable=0;points=[];autosize=1;strokeColor=none;fillColor=none;labelBackgroundColor=none;rounded=0;fontColor=#1A1A1A;" parent="1" vertex="1">
          <mxGeometry x="-22877" y="-2248" width="60" height="30" as="geometry" />
        </mxCell>
        <mxCell id="eyZ5qENP4nm9uY7_rV8y-92" value="(1,N)" style="text;html=1;align=center;verticalAlign=middle;resizable=0;points=[];autosize=1;strokeColor=none;fillColor=none;labelBackgroundColor=none;rounded=0;fontColor=#1A1A1A;" parent="1" vertex="1">
          <mxGeometry x="-22797" y="-2196" width="50" height="30" as="geometry" />
        </mxCell>
        <mxCell id="eyZ5qENP4nm9uY7_rV8y-93" value="(1,N)" style="text;html=1;align=center;verticalAlign=middle;resizable=0;points=[];autosize=1;strokeColor=none;fillColor=none;labelBackgroundColor=none;rounded=0;fontColor=#1A1A1A;" parent="1" vertex="1">
          <mxGeometry x="-22667" y="-2196" width="50" height="30" as="geometry" />
        </mxCell>
        <mxCell id="eyZ5qENP4nm9uY7_rV8y-96" value="Piano" style="text;html=1;align=center;verticalAlign=middle;resizable=0;points=[];autosize=1;strokeColor=none;fillColor=none;labelBackgroundColor=none;rounded=0;fontColor=#1A1A1A;" parent="1" vertex="1">
          <mxGeometry x="-22663" y="-2645" width="50" height="30" as="geometry" />
        </mxCell>
        <mxCell id="ERPnFefsP54BphPaziVe-1" style="edgeStyle=orthogonalEdgeStyle;rounded=0;orthogonalLoop=1;jettySize=auto;html=1;exitX=0;exitY=0;exitDx=0;exitDy=0;align=center;verticalAlign=middle;fontFamily=Helvetica;fontSize=11;fontColor=default;labelBackgroundColor=none;endArrow=oval;endFill=1;strokeColor=#09555B;" parent="1" edge="1">
          <mxGeometry relative="1" as="geometry">
            <mxPoint x="-23106.027027027027" y="-2665" as="targetPoint" />
            <mxPoint x="-23106" y="-2645" as="sourcePoint" />
          </mxGeometry>
        </mxCell>
        <mxCell id="ERPnFefsP54BphPaziVe-2" value="Code" style="text;html=1;align=center;verticalAlign=middle;resizable=0;points=[];autosize=1;strokeColor=none;fillColor=none;fontFamily=Helvetica;fontSize=11;labelBackgroundColor=none;rounded=0;fontColor=#1A1A1A;" parent="1" vertex="1">
          <mxGeometry x="-23006" y="-2548" width="50" height="30" as="geometry" />
        </mxCell>
        <mxCell id="ERPnFefsP54BphPaziVe-27" value="(0,N)" style="text;html=1;align=center;verticalAlign=middle;resizable=0;points=[];autosize=1;strokeColor=none;fillColor=none;labelBackgroundColor=none;rounded=0;fontColor=#1A1A1A;" parent="1" vertex="1">
          <mxGeometry x="-22177" y="-3320" width="50" height="30" as="geometry" />
        </mxCell>
        <mxCell id="RbMR6hmsyGio7f3lNEcu-22" style="edgeStyle=orthogonalEdgeStyle;rounded=0;orthogonalLoop=1;jettySize=auto;html=1;entryX=1;entryY=0.5;entryDx=0;entryDy=0;exitX=0.5;exitY=0;exitDx=0;exitDy=0;endArrow=none;endFill=0;labelBackgroundColor=none;fontColor=default;strokeColor=#09555B;" parent="1" source="RbMR6hmsyGio7f3lNEcu-17" target="RbMR6hmsyGio7f3lNEcu-21" edge="1">
          <mxGeometry relative="1" as="geometry" />
        </mxCell>
        <mxCell id="RbMR6hmsyGio7f3lNEcu-40" style="edgeStyle=orthogonalEdgeStyle;rounded=0;orthogonalLoop=1;jettySize=auto;html=1;exitX=0;exitY=0.5;exitDx=0;exitDy=0;endArrow=oval;endFill=0;labelBackgroundColor=none;fontColor=default;strokeColor=#09555B;" parent="1" source="RbMR6hmsyGio7f3lNEcu-17" edge="1">
          <mxGeometry relative="1" as="geometry">
            <mxPoint x="-22052" y="-3391.873015873016" as="targetPoint" />
          </mxGeometry>
        </mxCell>
        <mxCell id="RbMR6hmsyGio7f3lNEcu-17" value="sostituzione" style="whiteSpace=wrap;html=1;fontSize=11;rounded=0;labelBackgroundColor=none;fillColor=#FAD9D5;strokeColor=#D0CEE2;fontColor=#1A1A1A;" parent="1" vertex="1">
          <mxGeometry x="-22031.18" y="-3422" width="120" height="60" as="geometry" />
        </mxCell>
        <mxCell id="iASLkcTXXLzT_OT9ee92-85" value="effettua" style="rhombus;whiteSpace=wrap;html=1;fontSize=11;rounded=0;labelBackgroundColor=none;fillColor=#FAD9D5;strokeColor=#D0CEE2;fontColor=#1A1A1A;" parent="1" vertex="1">
          <mxGeometry x="-22136" y="-3335" width="80" height="80" as="geometry" />
        </mxCell>
        <mxCell id="RbMR6hmsyGio7f3lNEcu-21" value="sostituito" style="rhombus;whiteSpace=wrap;html=1;fontSize=11;rounded=0;labelBackgroundColor=none;fillColor=#FAD9D5;strokeColor=#D0CEE2;fontColor=#1A1A1A;" parent="1" vertex="1">
          <mxGeometry x="-22144.5" y="-3490" width="80" height="80" as="geometry" />
        </mxCell>
        <mxCell id="RbMR6hmsyGio7f3lNEcu-31" style="edgeStyle=orthogonalEdgeStyle;rounded=0;orthogonalLoop=1;jettySize=auto;html=1;exitX=0.5;exitY=0;exitDx=0;exitDy=0;endArrow=oval;endFill=1;labelBackgroundColor=none;fontColor=default;strokeColor=#09555B;" parent="1" edge="1">
          <mxGeometry relative="1" as="geometry">
            <mxPoint x="-22006.121212121212" y="-2940" as="targetPoint" />
            <mxPoint x="-22016" y="-2915" as="sourcePoint" />
          </mxGeometry>
        </mxCell>
        <mxCell id="vZneiS7C8i41ovWJdTVS-7" value="" style="edgeStyle=orthogonalEdgeStyle;rounded=0;orthogonalLoop=1;jettySize=auto;html=1;strokeColor=#09555B;fontColor=default;endArrow=none;endFill=0;labelBackgroundColor=none;" parent="1" source="RbMR6hmsyGio7f3lNEcu-32" target="vZneiS7C8i41ovWJdTVS-6" edge="1">
          <mxGeometry relative="1" as="geometry" />
        </mxCell>
        <mxCell id="vZneiS7C8i41ovWJdTVS-11" style="edgeStyle=orthogonalEdgeStyle;rounded=0;orthogonalLoop=1;jettySize=auto;html=1;strokeColor=#09555B;fontColor=default;entryX=0.5;entryY=0;entryDx=0;entryDy=0;endArrow=none;endFill=0;labelBackgroundColor=none;" parent="1" source="RbMR6hmsyGio7f3lNEcu-32" target="vZneiS7C8i41ovWJdTVS-13" edge="1">
          <mxGeometry relative="1" as="geometry">
            <mxPoint x="-22041" y="-2690" as="targetPoint" />
          </mxGeometry>
        </mxCell>
        <mxCell id="vZneiS7C8i41ovWJdTVS-12" value="" style="edgeLabel;html=1;align=center;verticalAlign=middle;resizable=0;points=[];strokeColor=#D0CEE2;fontColor=#1A1A1A;fillColor=#FAD9D5;labelBackgroundColor=none;" parent="vZneiS7C8i41ovWJdTVS-11" vertex="1" connectable="0">
          <mxGeometry x="0.9981" y="-1" relative="1" as="geometry">
            <mxPoint as="offset" />
          </mxGeometry>
        </mxCell>
        <mxCell id="RbMR6hmsyGio7f3lNEcu-32" value="specializzazioni" style="rounded=0;whiteSpace=wrap;html=1;labelBackgroundColor=none;fillColor=#FAD9D5;strokeColor=#D0CEE2;fontColor=#1A1A1A;" parent="1" vertex="1">
          <mxGeometry x="-22101" y="-2915.5" width="120" height="60" as="geometry" />
        </mxCell>
        <mxCell id="RbMR6hmsyGio7f3lNEcu-33" value="nome" style="text;html=1;align=center;verticalAlign=middle;resizable=0;points=[];autosize=1;strokeColor=none;fillColor=none;labelBackgroundColor=none;rounded=0;fontColor=#1A1A1A;" parent="1" vertex="1">
          <mxGeometry x="-22031" y="-2970" width="50" height="30" as="geometry" />
        </mxCell>
        <mxCell id="RbMR6hmsyGio7f3lNEcu-38" value="" style="endArrow=oval;html=1;rounded=0;exitX=0.998;exitY=0.831;exitDx=0;exitDy=0;exitPerimeter=0;endFill=0;labelBackgroundColor=none;fontColor=default;strokeColor=#09555B;" parent="1" edge="1">
          <mxGeometry width="50" height="50" relative="1" as="geometry">
            <mxPoint x="-21911.18" y="-3392.16" as="sourcePoint" />
            <mxPoint x="-21891.18" y="-3392.16" as="targetPoint" />
            <Array as="points" />
          </mxGeometry>
        </mxCell>
        <mxCell id="RbMR6hmsyGio7f3lNEcu-39" value="DataInizio" style="text;html=1;align=center;verticalAlign=middle;resizable=0;points=[];autosize=1;strokeColor=none;fillColor=none;labelBackgroundColor=none;rounded=0;fontColor=#1A1A1A;" parent="1" vertex="1">
          <mxGeometry x="-21898" y="-3407" width="80" height="30" as="geometry" />
        </mxCell>
        <mxCell id="RbMR6hmsyGio7f3lNEcu-41" value="DataFine" style="text;html=1;align=center;verticalAlign=middle;resizable=0;points=[];autosize=1;strokeColor=none;fillColor=none;labelBackgroundColor=none;rounded=0;fontColor=#1A1A1A;" parent="1" vertex="1">
          <mxGeometry x="-22121" y="-3407" width="70" height="30" as="geometry" />
        </mxCell>
        <mxCell id="RbMR6hmsyGio7f3lNEcu-42" value="" style="endArrow=oval;html=1;rounded=0;align=center;verticalAlign=middle;fontFamily=Helvetica;fontSize=11;fontColor=default;labelBackgroundColor=none;edgeStyle=orthogonalEdgeStyle;endFill=1;strokeColor=#09555B;" parent="1" edge="1">
          <mxGeometry width="50" height="50" relative="1" as="geometry">
            <mxPoint x="-21982" y="-3352.51" as="sourcePoint" />
            <mxPoint x="-21982" y="-3432.51" as="targetPoint" />
            <Array as="points">
              <mxPoint x="-21982" y="-3351.51" />
              <mxPoint x="-21902" y="-3351.51" />
            </Array>
          </mxGeometry>
        </mxCell>
        <mxCell id="RbMR6hmsyGio7f3lNEcu-43" value="(0,N)" style="text;html=1;align=center;verticalAlign=middle;resizable=0;points=[];autosize=1;strokeColor=none;fillColor=none;labelBackgroundColor=none;rounded=0;fontColor=#1A1A1A;" parent="1" vertex="1">
          <mxGeometry x="-22186" y="-3480" width="50" height="30" as="geometry" />
        </mxCell>
        <mxCell id="RbMR6hmsyGio7f3lNEcu-45" value="Data" style="text;html=1;align=center;verticalAlign=middle;resizable=0;points=[];autosize=1;strokeColor=none;fillColor=none;labelBackgroundColor=none;rounded=0;fontColor=#1A1A1A;" parent="1" vertex="1">
          <mxGeometry x="-22206" y="-2802" width="50" height="30" as="geometry" />
        </mxCell>
        <mxCell id="RbMR6hmsyGio7f3lNEcu-47" value="Codice" style="text;html=1;align=center;verticalAlign=middle;resizable=0;points=[];autosize=1;strokeColor=none;fillColor=none;labelBackgroundColor=none;rounded=0;fontColor=#1A1A1A;" parent="1" vertex="1">
          <mxGeometry x="-22213" y="-2670" width="60" height="30" as="geometry" />
        </mxCell>
        <mxCell id="RbMR6hmsyGio7f3lNEcu-51" value="(1,N)" style="text;html=1;align=center;verticalAlign=middle;resizable=0;points=[];autosize=1;strokeColor=none;fillColor=none;labelBackgroundColor=none;rounded=0;fontColor=#1A1A1A;" parent="1" vertex="1">
          <mxGeometry x="-22040.18" y="-3012.5" width="50" height="30" as="geometry" />
        </mxCell>
        <mxCell id="RbMR6hmsyGio7f3lNEcu-52" value="(0,N)" style="text;html=1;align=center;verticalAlign=middle;resizable=0;points=[];autosize=1;strokeColor=none;fillColor=none;labelBackgroundColor=none;rounded=0;fontColor=#1A1A1A;" parent="1" vertex="1">
          <mxGeometry x="-22040.18" y="-3122.5" width="50" height="30" as="geometry" />
        </mxCell>
        <mxCell id="RbMR6hmsyGio7f3lNEcu-55" style="edgeStyle=orthogonalEdgeStyle;rounded=0;orthogonalLoop=1;jettySize=auto;html=1;entryX=0.5;entryY=1;entryDx=0;entryDy=0;endArrow=none;endFill=0;labelBackgroundColor=none;fontColor=default;strokeColor=#09555B;" parent="1" source="RbMR6hmsyGio7f3lNEcu-54" target="iASLkcTXXLzT_OT9ee92-95" edge="1">
          <mxGeometry relative="1" as="geometry" />
        </mxCell>
        <mxCell id="RbMR6hmsyGio7f3lNEcu-57" value="" style="edgeStyle=orthogonalEdgeStyle;rounded=0;orthogonalLoop=1;jettySize=auto;html=1;endArrow=none;endFill=0;labelBackgroundColor=none;fontColor=default;strokeColor=#09555B;" parent="1" source="RbMR6hmsyGio7f3lNEcu-54" target="RbMR6hmsyGio7f3lNEcu-56" edge="1">
          <mxGeometry relative="1" as="geometry" />
        </mxCell>
        <mxCell id="RbMR6hmsyGio7f3lNEcu-54" value="effettua" style="rhombus;whiteSpace=wrap;html=1;labelBackgroundColor=none;rounded=0;fillColor=#FAD9D5;strokeColor=#D0CEE2;fontColor=#1A1A1A;" parent="1" vertex="1">
          <mxGeometry x="-22186" y="-2582" width="80" height="80" as="geometry" />
        </mxCell>
        <mxCell id="RbMR6hmsyGio7f3lNEcu-58" style="edgeStyle=orthogonalEdgeStyle;rounded=0;orthogonalLoop=1;jettySize=auto;html=1;endArrow=oval;endFill=1;labelBackgroundColor=none;fontColor=default;strokeColor=#09555B;" parent="1" source="RbMR6hmsyGio7f3lNEcu-56" edge="1">
          <mxGeometry relative="1" as="geometry">
            <mxPoint x="-21986" y="-2590" as="targetPoint" />
            <Array as="points">
              <mxPoint x="-21986" y="-2590" />
            </Array>
          </mxGeometry>
        </mxCell>
        <mxCell id="A8Oj2vjsRHP7mTtxIWq--89" style="edgeStyle=orthogonalEdgeStyle;rounded=0;orthogonalLoop=1;jettySize=auto;html=1;exitX=0.25;exitY=1;exitDx=0;exitDy=0;strokeColor=#09555B;fontColor=default;endArrow=oval;endFill=0;labelBackgroundColor=none;" parent="1" source="RbMR6hmsyGio7f3lNEcu-56" edge="1">
          <mxGeometry relative="1" as="geometry">
            <mxPoint x="-22016.157894736843" y="-2490" as="targetPoint" />
          </mxGeometry>
        </mxCell>
        <mxCell id="A8Oj2vjsRHP7mTtxIWq--90" style="edgeStyle=orthogonalEdgeStyle;rounded=0;orthogonalLoop=1;jettySize=auto;html=1;exitX=0.75;exitY=1;exitDx=0;exitDy=0;strokeColor=#09555B;fontColor=default;endArrow=oval;endFill=0;labelBackgroundColor=none;" parent="1" source="RbMR6hmsyGio7f3lNEcu-56" edge="1">
          <mxGeometry relative="1" as="geometry">
            <mxPoint x="-21956.157894736843" y="-2490" as="targetPoint" />
          </mxGeometry>
        </mxCell>
        <mxCell id="RbMR6hmsyGio7f3lNEcu-56" value="medico esterno" style="whiteSpace=wrap;html=1;labelBackgroundColor=none;rounded=0;fillColor=#FAD9D5;strokeColor=#D0CEE2;fontColor=#1A1A1A;" parent="1" vertex="1">
          <mxGeometry x="-22046" y="-2572" width="120" height="60" as="geometry" />
        </mxCell>
        <mxCell id="RbMR6hmsyGio7f3lNEcu-59" value="CF" style="text;html=1;align=center;verticalAlign=middle;resizable=0;points=[];autosize=1;strokeColor=none;fillColor=none;labelBackgroundColor=none;rounded=0;fontColor=#1A1A1A;" parent="1" vertex="1">
          <mxGeometry x="-22006" y="-2620" width="40" height="30" as="geometry" />
        </mxCell>
        <mxCell id="RbMR6hmsyGio7f3lNEcu-60" value="(0,N)" style="text;html=1;align=center;verticalAlign=middle;resizable=0;points=[];autosize=1;strokeColor=none;fillColor=none;labelBackgroundColor=none;rounded=0;fontColor=#1A1A1A;" parent="1" vertex="1">
          <mxGeometry x="-22105" y="-2542" width="50" height="30" as="geometry" />
        </mxCell>
        <mxCell id="RbMR6hmsyGio7f3lNEcu-62" style="edgeStyle=orthogonalEdgeStyle;rounded=0;orthogonalLoop=1;jettySize=auto;html=1;entryX=0;entryY=1;entryDx=0;entryDy=0;exitX=0.5;exitY=0;exitDx=0;exitDy=0;endArrow=none;endFill=0;labelBackgroundColor=none;fontColor=default;strokeColor=#09555B;" parent="1" source="RbMR6hmsyGio7f3lNEcu-61" target="iASLkcTXXLzT_OT9ee92-95" edge="1">
          <mxGeometry relative="1" as="geometry">
            <Array as="points">
              <mxPoint x="-22255" y="-2690" />
            </Array>
          </mxGeometry>
        </mxCell>
        <mxCell id="RbMR6hmsyGio7f3lNEcu-61" value="avere" style="rhombus;whiteSpace=wrap;html=1;labelBackgroundColor=none;rounded=0;fillColor=#FAD9D5;strokeColor=#D0CEE2;fontColor=#1A1A1A;" parent="1" vertex="1">
          <mxGeometry x="-22295" y="-2607" width="80" height="80" as="geometry" />
        </mxCell>
        <mxCell id="RbMR6hmsyGio7f3lNEcu-63" style="edgeStyle=orthogonalEdgeStyle;rounded=0;orthogonalLoop=1;jettySize=auto;html=1;entryX=0.446;entryY=0.022;entryDx=0;entryDy=0;entryPerimeter=0;endArrow=none;endFill=0;labelBackgroundColor=none;fontColor=default;strokeColor=#09555B;" parent="1" source="RbMR6hmsyGio7f3lNEcu-61" target="iASLkcTXXLzT_OT9ee92-44" edge="1">
          <mxGeometry relative="1" as="geometry" />
        </mxCell>
        <mxCell id="RbMR6hmsyGio7f3lNEcu-64" value="(0,1)" style="text;html=1;align=center;verticalAlign=middle;resizable=0;points=[];autosize=1;strokeColor=none;fillColor=none;labelBackgroundColor=none;rounded=0;fontColor=#1A1A1A;" parent="1" vertex="1">
          <mxGeometry x="-22256" y="-2532" width="50" height="30" as="geometry" />
        </mxCell>
        <mxCell id="RbMR6hmsyGio7f3lNEcu-65" value="(0,1)" style="text;html=1;align=center;verticalAlign=middle;resizable=0;points=[];autosize=1;strokeColor=none;fillColor=none;labelBackgroundColor=none;rounded=0;fontColor=#1A1A1A;" parent="1" vertex="1">
          <mxGeometry x="-22256" y="-2633" width="50" height="30" as="geometry" />
        </mxCell>
        <mxCell id="pvKGCRZamBin-Z1_yLE3-10" style="edgeStyle=orthogonalEdgeStyle;rounded=0;orthogonalLoop=1;jettySize=auto;html=1;exitX=0.5;exitY=1;exitDx=0;exitDy=0;entryX=0.365;entryY=0.021;entryDx=0;entryDy=0;entryPerimeter=0;endArrow=none;endFill=0;labelBackgroundColor=none;fontColor=default;strokeColor=#09555B;" parent="1" source="iASLkcTXXLzT_OT9ee92-25" target="iASLkcTXXLzT_OT9ee92-31" edge="1">
          <mxGeometry relative="1" as="geometry" />
        </mxCell>
        <mxCell id="pvKGCRZamBin-Z1_yLE3-11" value="(1,1)" style="text;html=1;align=center;verticalAlign=middle;resizable=0;points=[];autosize=1;strokeColor=none;fillColor=none;labelBackgroundColor=none;rounded=0;fontColor=#1A1A1A;" parent="1" vertex="1">
          <mxGeometry x="-23006" y="-2992" width="50" height="30" as="geometry" />
        </mxCell>
        <mxCell id="pvKGCRZamBin-Z1_yLE3-12" value="" style="edgeStyle=orthogonalEdgeStyle;rounded=0;orthogonalLoop=1;jettySize=auto;html=1;align=center;verticalAlign=middle;fontFamily=Helvetica;fontSize=11;fontColor=default;labelBackgroundColor=none;endArrow=none;endFill=0;exitX=0.75;exitY=1;exitDx=0;exitDy=0;strokeColor=#09555B;" parent="1" source="A8Oj2vjsRHP7mTtxIWq--8" target="RbMR6hmsyGio7f3lNEcu-25" edge="1">
          <mxGeometry relative="1" as="geometry">
            <mxPoint x="-22266" y="-3120" as="sourcePoint" />
            <mxPoint x="-22144" y="-2920" as="targetPoint" />
          </mxGeometry>
        </mxCell>
        <mxCell id="RbMR6hmsyGio7f3lNEcu-25" value="ha" style="rhombus;whiteSpace=wrap;html=1;fontSize=11;rounded=0;labelBackgroundColor=none;fillColor=#FAD9D5;strokeColor=#D0CEE2;fontColor=#1A1A1A;" parent="1" vertex="1">
          <mxGeometry x="-22081" y="-3092.5" width="80" height="80" as="geometry" />
        </mxCell>
        <mxCell id="pvKGCRZamBin-Z1_yLE3-13" style="edgeStyle=orthogonalEdgeStyle;rounded=0;orthogonalLoop=1;jettySize=auto;html=1;entryX=0.334;entryY=0.998;entryDx=0;entryDy=0;entryPerimeter=0;endArrow=none;endFill=0;labelBackgroundColor=none;fontColor=default;strokeColor=#09555B;" parent="1" source="iASLkcTXXLzT_OT9ee92-93" target="A8Oj2vjsRHP7mTtxIWq--8" edge="1">
          <mxGeometry relative="1" as="geometry" />
        </mxCell>
        <mxCell id="pvKGCRZamBin-Z1_yLE3-14" style="edgeStyle=orthogonalEdgeStyle;rounded=0;orthogonalLoop=1;jettySize=auto;html=1;entryX=0.5;entryY=0;entryDx=0;entryDy=0;endArrow=none;endFill=0;labelBackgroundColor=none;fontColor=default;strokeColor=#09555B;" parent="1" source="RbMR6hmsyGio7f3lNEcu-25" target="RbMR6hmsyGio7f3lNEcu-32" edge="1">
          <mxGeometry relative="1" as="geometry" />
        </mxCell>
        <mxCell id="pvKGCRZamBin-Z1_yLE3-17" style="edgeStyle=orthogonalEdgeStyle;rounded=0;orthogonalLoop=1;jettySize=auto;html=1;entryX=0.5;entryY=0;entryDx=0;entryDy=0;endArrow=none;endFill=0;labelBackgroundColor=none;fontColor=default;strokeColor=#09555B;" parent="1" source="iASLkcTXXLzT_OT9ee92-11" target="iASLkcTXXLzT_OT9ee92-13" edge="1">
          <mxGeometry relative="1" as="geometry">
            <Array as="points">
              <mxPoint x="-22491" y="-2390" />
              <mxPoint x="-22491" y="-2390" />
            </Array>
          </mxGeometry>
        </mxCell>
        <mxCell id="pvKGCRZamBin-Z1_yLE3-37" style="edgeStyle=orthogonalEdgeStyle;rounded=0;orthogonalLoop=1;jettySize=auto;html=1;entryX=0.188;entryY=0.997;entryDx=0;entryDy=0;entryPerimeter=0;endArrow=none;endFill=0;labelBackgroundColor=none;fontColor=default;strokeColor=#09555B;" parent="1" source="eyZ5qENP4nm9uY7_rV8y-78" target="iASLkcTXXLzT_OT9ee92-44" edge="1">
          <mxGeometry relative="1" as="geometry" />
        </mxCell>
        <mxCell id="pvKGCRZamBin-Z1_yLE3-42" style="edgeStyle=orthogonalEdgeStyle;rounded=0;orthogonalLoop=1;jettySize=auto;html=1;entryX=0.597;entryY=0.012;entryDx=0;entryDy=0;entryPerimeter=0;fontColor=default;endArrow=none;endFill=0;labelBackgroundColor=none;strokeColor=#09555B;" parent="1" source="eyZ5qENP4nm9uY7_rV8y-78" target="iASLkcTXXLzT_OT9ee92-19" edge="1">
          <mxGeometry relative="1" as="geometry" />
        </mxCell>
        <mxCell id="pvKGCRZamBin-Z1_yLE3-45" style="edgeStyle=orthogonalEdgeStyle;rounded=0;orthogonalLoop=1;jettySize=auto;html=1;exitX=1;exitY=0;exitDx=0;exitDy=0;align=center;verticalAlign=middle;fontFamily=Helvetica;fontSize=11;fontColor=default;labelBackgroundColor=none;endArrow=oval;endFill=0;strokeColor=#09555B;" parent="1" edge="1">
          <mxGeometry relative="1" as="geometry">
            <mxPoint x="-22533.181111111113" y="-3568" as="targetPoint" />
            <mxPoint x="-22533.07" y="-3548" as="sourcePoint" />
          </mxGeometry>
        </mxCell>
        <mxCell id="pvKGCRZamBin-Z1_yLE3-46" style="edgeStyle=orthogonalEdgeStyle;rounded=0;orthogonalLoop=1;jettySize=auto;html=1;exitX=1;exitY=0;exitDx=0;exitDy=0;align=center;verticalAlign=middle;fontFamily=Helvetica;fontSize=11;fontColor=default;labelBackgroundColor=none;endArrow=oval;endFill=0;strokeColor=#09555B;" parent="1" edge="1">
          <mxGeometry relative="1" as="geometry">
            <mxPoint x="-22579.091111111113" y="-3568" as="targetPoint" />
            <mxPoint x="-22578.98" y="-3548" as="sourcePoint" />
          </mxGeometry>
        </mxCell>
        <mxCell id="5s077RPclw-HT7UrMDog-2" style="edgeStyle=orthogonalEdgeStyle;rounded=0;orthogonalLoop=1;jettySize=auto;html=1;exitX=0.75;exitY=0;exitDx=0;exitDy=0;align=center;verticalAlign=middle;fontFamily=Helvetica;fontSize=11;fontColor=default;labelBackgroundColor=none;endArrow=oval;endFill=1;strokeColor=#09555B;" parent="1" edge="1">
          <mxGeometry relative="1" as="geometry">
            <mxPoint x="-22518.49754385965" y="-2490" as="targetPoint" />
            <mxPoint x="-22518.48" y="-2470" as="sourcePoint" />
          </mxGeometry>
        </mxCell>
        <mxCell id="5s077RPclw-HT7UrMDog-9" value="code" style="text;html=1;align=center;verticalAlign=middle;resizable=0;points=[];autosize=1;strokeColor=none;fillColor=none;fontColor=#1A1A1A;labelBackgroundColor=none;" parent="1" vertex="1">
          <mxGeometry x="-21692" y="-2449" width="50" height="30" as="geometry" />
        </mxCell>
        <mxCell id="5s077RPclw-HT7UrMDog-11" value="descrizione" style="text;html=1;align=center;verticalAlign=middle;resizable=0;points=[];autosize=1;strokeColor=none;fillColor=none;fontColor=#1A1A1A;labelBackgroundColor=none;" parent="1" vertex="1">
          <mxGeometry x="-21642" y="-2449" width="80" height="30" as="geometry" />
        </mxCell>
        <mxCell id="5s077RPclw-HT7UrMDog-14" value="Cfmedico" style="text;html=1;align=center;verticalAlign=middle;resizable=0;points=[];autosize=1;strokeColor=none;fillColor=none;fontColor=#1A1A1A;labelBackgroundColor=none;" parent="1" vertex="1">
          <mxGeometry x="-22148" y="-2802" width="70" height="30" as="geometry" />
        </mxCell>
        <mxCell id="5s077RPclw-HT7UrMDog-32" value="codLetto" style="text;html=1;align=center;verticalAlign=middle;resizable=0;points=[];autosize=1;strokeColor=none;fillColor=none;fontFamily=Helvetica;fontSize=11;fontColor=#1A1A1A;labelBackgroundColor=none;" parent="1" vertex="1">
          <mxGeometry x="-22555" y="-2518" width="70" height="30" as="geometry" />
        </mxCell>
        <mxCell id="5s077RPclw-HT7UrMDog-38" value="dubbio" style="text;html=1;align=center;verticalAlign=middle;resizable=0;points=[];autosize=1;strokeColor=none;fillColor=none;fontFamily=Helvetica;fontSize=11;fontColor=#1A1A1A;labelBackgroundColor=none;" parent="1" vertex="1">
          <mxGeometry x="-22595" y="-2580" width="60" height="30" as="geometry" />
        </mxCell>
        <mxCell id="5s077RPclw-HT7UrMDog-61" value="" style="edgeStyle=orthogonalEdgeStyle;rounded=0;orthogonalLoop=1;jettySize=auto;html=1;strokeColor=#09555B;align=center;verticalAlign=middle;fontFamily=Helvetica;fontSize=11;fontColor=default;labelBackgroundColor=none;endArrow=none;endFill=0;" parent="1" source="5s077RPclw-HT7UrMDog-58" target="5s077RPclw-HT7UrMDog-60" edge="1">
          <mxGeometry relative="1" as="geometry" />
        </mxCell>
        <mxCell id="5s077RPclw-HT7UrMDog-58" value="di apertura&lt;div&gt;est&lt;/div&gt;" style="rhombus;whiteSpace=wrap;html=1;fillColor=#FAD9D5;strokeColor=#D0CEE2;fontColor=#1A1A1A;rounded=0;labelBackgroundColor=none;" parent="1" vertex="1">
          <mxGeometry x="-23326" y="-2655" width="80" height="80" as="geometry" />
        </mxCell>
        <mxCell id="5s077RPclw-HT7UrMDog-65" style="edgeStyle=orthogonalEdgeStyle;rounded=0;orthogonalLoop=1;jettySize=auto;html=1;strokeColor=#09555B;align=center;verticalAlign=middle;fontFamily=Helvetica;fontSize=11;fontColor=default;labelBackgroundColor=none;endArrow=none;endFill=0;" parent="1" source="5s077RPclw-HT7UrMDog-60" target="5s077RPclw-HT7UrMDog-66" edge="1">
          <mxGeometry relative="1" as="geometry">
            <mxPoint x="-23010" y="-2895" as="targetPoint" />
          </mxGeometry>
        </mxCell>
        <mxCell id="5s077RPclw-HT7UrMDog-69" style="edgeStyle=orthogonalEdgeStyle;rounded=0;orthogonalLoop=1;jettySize=auto;html=1;exitX=0.25;exitY=0;exitDx=0;exitDy=0;strokeColor=#09555B;align=center;verticalAlign=middle;fontFamily=Helvetica;fontSize=11;fontColor=default;labelBackgroundColor=none;endArrow=oval;endFill=0;" parent="1" source="5s077RPclw-HT7UrMDog-60" edge="1">
          <mxGeometry relative="1" as="geometry">
            <mxPoint x="-23315.896907216495" y="-2940" as="targetPoint" />
          </mxGeometry>
        </mxCell>
        <mxCell id="5s077RPclw-HT7UrMDog-70" style="edgeStyle=orthogonalEdgeStyle;rounded=0;orthogonalLoop=1;jettySize=auto;html=1;exitX=0.75;exitY=0;exitDx=0;exitDy=0;strokeColor=#09555B;align=center;verticalAlign=middle;fontFamily=Helvetica;fontSize=11;fontColor=default;labelBackgroundColor=none;endArrow=oval;endFill=0;" parent="1" source="5s077RPclw-HT7UrMDog-60" edge="1">
          <mxGeometry relative="1" as="geometry">
            <mxPoint x="-23255.896907216495" y="-2940" as="targetPoint" />
          </mxGeometry>
        </mxCell>
        <mxCell id="A8Oj2vjsRHP7mTtxIWq--119" value="" style="edgeStyle=orthogonalEdgeStyle;rounded=0;orthogonalLoop=1;jettySize=auto;html=1;strokeColor=#09555B;fontColor=default;endArrow=none;endFill=0;labelBackgroundColor=none;" parent="1" source="5s077RPclw-HT7UrMDog-60" target="A8Oj2vjsRHP7mTtxIWq--118" edge="1">
          <mxGeometry relative="1" as="geometry" />
        </mxCell>
        <mxCell id="5s077RPclw-HT7UrMDog-60" value="orari" style="whiteSpace=wrap;html=1;fillColor=#FAD9D5;strokeColor=#D0CEE2;fontColor=#1A1A1A;rounded=0;labelBackgroundColor=none;" parent="1" vertex="1">
          <mxGeometry x="-23346" y="-2925" width="120" height="60" as="geometry" />
        </mxCell>
        <mxCell id="5s077RPclw-HT7UrMDog-67" style="edgeStyle=orthogonalEdgeStyle;rounded=0;orthogonalLoop=1;jettySize=auto;html=1;entryX=0.25;entryY=1;entryDx=0;entryDy=0;strokeColor=#09555B;align=center;verticalAlign=middle;fontFamily=Helvetica;fontSize=11;fontColor=default;labelBackgroundColor=none;endArrow=none;endFill=0;" parent="1" source="5s077RPclw-HT7UrMDog-66" target="iASLkcTXXLzT_OT9ee92-1" edge="1">
          <mxGeometry relative="1" as="geometry" />
        </mxCell>
        <mxCell id="5s077RPclw-HT7UrMDog-66" value="di visita" style="rhombus;whiteSpace=wrap;html=1;strokeColor=#D0CEE2;fontFamily=Helvetica;fontSize=11;fontColor=#1A1A1A;labelBackgroundColor=none;fillColor=#FAD9D5;" parent="1" vertex="1">
          <mxGeometry x="-22966" y="-2935.5" width="80" height="80" as="geometry" />
        </mxCell>
        <mxCell id="5s077RPclw-HT7UrMDog-71" value="" style="endArrow=oval;html=1;rounded=0;strokeColor=#09555B;align=center;verticalAlign=middle;fontFamily=Helvetica;fontSize=11;fontColor=default;labelBackgroundColor=none;edgeStyle=orthogonalEdgeStyle;endFill=1;" parent="1" edge="1">
          <mxGeometry width="50" height="50" relative="1" as="geometry">
            <mxPoint x="-23330" y="-2932.5" as="sourcePoint" />
            <mxPoint x="-23250" y="-2932" as="targetPoint" />
          </mxGeometry>
        </mxCell>
        <mxCell id="5s077RPclw-HT7UrMDog-72" value="giornodellasett" style="text;html=1;align=center;verticalAlign=middle;resizable=0;points=[];autosize=1;strokeColor=none;fillColor=none;fontFamily=Helvetica;fontSize=11;fontColor=#1A1A1A;labelBackgroundColor=none;" parent="1" vertex="1">
          <mxGeometry x="-23370" y="-2972" width="100" height="30" as="geometry" />
        </mxCell>
        <mxCell id="5s077RPclw-HT7UrMDog-73" value="fascia oraria" style="text;html=1;align=center;verticalAlign=middle;resizable=0;points=[];autosize=1;strokeColor=none;fillColor=none;fontFamily=Helvetica;fontSize=11;fontColor=#1A1A1A;labelBackgroundColor=none;" parent="1" vertex="1">
          <mxGeometry x="-23280" y="-2970" width="80" height="30" as="geometry" />
        </mxCell>
        <mxCell id="5s077RPclw-HT7UrMDog-74" value="(1,N)" style="text;html=1;align=center;verticalAlign=middle;resizable=0;points=[];autosize=1;strokeColor=none;fillColor=none;fontFamily=Helvetica;fontSize=11;fontColor=#1A1A1A;labelBackgroundColor=none;" parent="1" vertex="1">
          <mxGeometry x="-23011" y="-2925" width="50" height="30" as="geometry" />
        </mxCell>
        <mxCell id="5s077RPclw-HT7UrMDog-75" value="(0,N)" style="text;html=1;align=center;verticalAlign=middle;resizable=0;points=[];autosize=1;strokeColor=none;fillColor=none;fontFamily=Helvetica;fontSize=11;fontColor=#1A1A1A;labelBackgroundColor=none;" parent="1" vertex="1">
          <mxGeometry x="-22891" y="-2925" width="50" height="30" as="geometry" />
        </mxCell>
        <mxCell id="5s077RPclw-HT7UrMDog-76" value="(0,N)" style="text;html=1;align=center;verticalAlign=middle;resizable=0;points=[];autosize=1;strokeColor=none;fillColor=none;fontFamily=Helvetica;fontSize=11;fontColor=#1A1A1A;labelBackgroundColor=none;" parent="1" vertex="1">
          <mxGeometry x="-23331" y="-2685" width="50" height="30" as="geometry" />
        </mxCell>
        <mxCell id="5s077RPclw-HT7UrMDog-77" value="(1,N)" style="text;html=1;align=center;verticalAlign=middle;resizable=0;points=[];autosize=1;strokeColor=none;fillColor=none;fontFamily=Helvetica;fontSize=11;fontColor=#1A1A1A;labelBackgroundColor=none;" parent="1" vertex="1">
          <mxGeometry x="-23251" y="-2615" width="50" height="30" as="geometry" />
        </mxCell>
        <mxCell id="vZneiS7C8i41ovWJdTVS-4" value="" style="endArrow=none;html=1;rounded=0;entryX=0.25;entryY=1;entryDx=0;entryDy=0;endFill=0;startArrow=oval;startFill=0;labelBackgroundColor=none;strokeColor=#09555B;fontColor=default;" parent="1" target="iASLkcTXXLzT_OT9ee92-99" edge="1">
          <mxGeometry width="50" height="50" relative="1" as="geometry">
            <mxPoint x="-21837" y="-2670" as="sourcePoint" />
            <mxPoint x="-21832" y="-2689" as="targetPoint" />
          </mxGeometry>
        </mxCell>
        <mxCell id="vZneiS7C8i41ovWJdTVS-6" value="necessita" style="rhombus;whiteSpace=wrap;html=1;fillColor=#FAD9D5;strokeColor=#D0CEE2;fontColor=#1A1A1A;rounded=0;labelBackgroundColor=none;" parent="1" vertex="1">
          <mxGeometry x="-21827" y="-2925" width="80" height="80" as="geometry" />
        </mxCell>
        <mxCell id="vZneiS7C8i41ovWJdTVS-8" style="edgeStyle=orthogonalEdgeStyle;rounded=0;orthogonalLoop=1;jettySize=auto;html=1;entryX=0.664;entryY=-0.003;entryDx=0;entryDy=0;entryPerimeter=0;strokeColor=#09555B;fontColor=default;endArrow=none;endFill=0;labelBackgroundColor=none;" parent="1" source="vZneiS7C8i41ovWJdTVS-6" target="iASLkcTXXLzT_OT9ee92-99" edge="1">
          <mxGeometry relative="1" as="geometry" />
        </mxCell>
        <mxCell id="vZneiS7C8i41ovWJdTVS-9" value="(1,N)" style="text;html=1;align=center;verticalAlign=middle;resizable=0;points=[];autosize=1;strokeColor=none;fillColor=none;fontColor=#1A1A1A;labelBackgroundColor=none;" parent="1" vertex="1">
          <mxGeometry x="-21877" y="-2915.5" width="50" height="30" as="geometry" />
        </mxCell>
        <mxCell id="vZneiS7C8i41ovWJdTVS-10" value="(0,1)" style="text;html=1;align=center;verticalAlign=middle;resizable=0;points=[];autosize=1;strokeColor=none;fillColor=none;fontColor=#1A1A1A;labelBackgroundColor=none;" parent="1" vertex="1">
          <mxGeometry x="-21792" y="-2845" width="50" height="30" as="geometry" />
        </mxCell>
        <mxCell id="vZneiS7C8i41ovWJdTVS-13" value="ha" style="rhombus;whiteSpace=wrap;html=1;strokeColor=#D0CEE2;fontColor=#1A1A1A;fillColor=#FAD9D5;labelBackgroundColor=none;" parent="1" vertex="1">
          <mxGeometry x="-22081" y="-2695" width="80" height="80" as="geometry" />
        </mxCell>
        <mxCell id="vZneiS7C8i41ovWJdTVS-14" style="edgeStyle=orthogonalEdgeStyle;rounded=0;orthogonalLoop=1;jettySize=auto;html=1;entryX=0.04;entryY=0.005;entryDx=0;entryDy=0;entryPerimeter=0;strokeColor=#09555B;fontColor=default;endArrow=none;endFill=0;labelBackgroundColor=none;" parent="1" source="vZneiS7C8i41ovWJdTVS-13" target="RbMR6hmsyGio7f3lNEcu-56" edge="1">
          <mxGeometry relative="1" as="geometry" />
        </mxCell>
        <mxCell id="vZneiS7C8i41ovWJdTVS-15" value="(1,N)" style="text;html=1;align=center;verticalAlign=middle;resizable=0;points=[];autosize=1;strokeColor=none;fillColor=none;fontColor=#1A1A1A;labelBackgroundColor=none;" parent="1" vertex="1">
          <mxGeometry x="-22090.18" y="-2615" width="50" height="30" as="geometry" />
        </mxCell>
        <mxCell id="vZneiS7C8i41ovWJdTVS-16" value="(0,N)" style="text;html=1;align=center;verticalAlign=middle;resizable=0;points=[];autosize=1;strokeColor=none;fillColor=none;fontColor=#1A1A1A;labelBackgroundColor=none;" parent="1" vertex="1">
          <mxGeometry x="-22085" y="-2722" width="50" height="30" as="geometry" />
        </mxCell>
        <mxCell id="vZneiS7C8i41ovWJdTVS-21" style="edgeStyle=orthogonalEdgeStyle;rounded=0;orthogonalLoop=1;jettySize=auto;html=1;entryX=0.395;entryY=0.003;entryDx=0;entryDy=0;entryPerimeter=0;strokeColor=#09555B;fontColor=default;endArrow=none;endFill=0;labelBackgroundColor=none;" parent="1" source="iASLkcTXXLzT_OT9ee92-13" target="iASLkcTXXLzT_OT9ee92-15" edge="1">
          <mxGeometry relative="1" as="geometry" />
        </mxCell>
        <mxCell id="A8Oj2vjsRHP7mTtxIWq--55" value="" style="edgeStyle=orthogonalEdgeStyle;rounded=0;orthogonalLoop=1;jettySize=auto;html=1;endArrow=none;endFill=0;labelBackgroundColor=none;strokeColor=#09555B;fontColor=default;" parent="1" source="A8Oj2vjsRHP7mTtxIWq--1" target="A8Oj2vjsRHP7mTtxIWq--54" edge="1">
          <mxGeometry relative="1" as="geometry" />
        </mxCell>
        <mxCell id="A8Oj2vjsRHP7mTtxIWq--1" value="turni infermieri" style="whiteSpace=wrap;html=1;rounded=0;labelBackgroundColor=none;fillColor=#FAD9D5;strokeColor=#D0CEE2;fontColor=#1A1A1A;" parent="1" vertex="1">
          <mxGeometry x="-22828" y="-3550" width="120" height="60" as="geometry" />
        </mxCell>
        <mxCell id="A8Oj2vjsRHP7mTtxIWq--2" value="DATETIMEInit" style="text;html=1;align=center;verticalAlign=middle;resizable=0;points=[];autosize=1;strokeColor=none;fillColor=none;fontFamily=Helvetica;fontSize=11;labelBackgroundColor=none;rounded=0;fontColor=#1A1A1A;" parent="1" vertex="1">
          <mxGeometry x="-22850" y="-3602" width="90" height="30" as="geometry" />
        </mxCell>
        <mxCell id="A8Oj2vjsRHP7mTtxIWq--3" value="DATETIMEfine" style="text;html=1;align=center;verticalAlign=middle;resizable=0;points=[];autosize=1;strokeColor=none;fillColor=none;fontFamily=Helvetica;fontSize=11;labelBackgroundColor=none;rounded=0;fontColor=#1A1A1A;" parent="1" vertex="1">
          <mxGeometry x="-22766" y="-3602" width="100" height="30" as="geometry" />
        </mxCell>
        <mxCell id="A8Oj2vjsRHP7mTtxIWq--5" style="edgeStyle=orthogonalEdgeStyle;rounded=0;orthogonalLoop=1;jettySize=auto;html=1;exitX=1;exitY=0;exitDx=0;exitDy=0;align=center;verticalAlign=middle;fontFamily=Helvetica;fontSize=11;fontColor=default;labelBackgroundColor=none;endArrow=oval;endFill=0;strokeColor=#09555B;" parent="1" edge="1">
          <mxGeometry relative="1" as="geometry">
            <mxPoint x="-22741.181111111113" y="-3570" as="targetPoint" />
            <mxPoint x="-22741.07" y="-3550" as="sourcePoint" />
          </mxGeometry>
        </mxCell>
        <mxCell id="A8Oj2vjsRHP7mTtxIWq--6" style="edgeStyle=orthogonalEdgeStyle;rounded=0;orthogonalLoop=1;jettySize=auto;html=1;exitX=1;exitY=0;exitDx=0;exitDy=0;align=center;verticalAlign=middle;fontFamily=Helvetica;fontSize=11;fontColor=default;labelBackgroundColor=none;endArrow=oval;endFill=0;strokeColor=#09555B;" parent="1" edge="1">
          <mxGeometry relative="1" as="geometry">
            <mxPoint x="-22787.091111111113" y="-3570" as="targetPoint" />
            <mxPoint x="-22786.98" y="-3550" as="sourcePoint" />
          </mxGeometry>
        </mxCell>
        <mxCell id="A8Oj2vjsRHP7mTtxIWq--9" style="edgeStyle=orthogonalEdgeStyle;rounded=0;orthogonalLoop=1;jettySize=auto;html=1;entryX=0;entryY=0.5;entryDx=0;entryDy=0;exitX=0.5;exitY=0;exitDx=0;exitDy=0;endArrow=none;endFill=0;labelBackgroundColor=none;strokeColor=#09555B;fontColor=default;" parent="1" source="A8Oj2vjsRHP7mTtxIWq--8" target="RbMR6hmsyGio7f3lNEcu-21" edge="1">
          <mxGeometry relative="1" as="geometry" />
        </mxCell>
        <mxCell id="A8Oj2vjsRHP7mTtxIWq--10" style="edgeStyle=orthogonalEdgeStyle;rounded=0;orthogonalLoop=1;jettySize=auto;html=1;entryX=0;entryY=0.5;entryDx=0;entryDy=0;exitX=0.5;exitY=1;exitDx=0;exitDy=0;endArrow=none;endFill=0;labelBackgroundColor=none;strokeColor=#09555B;fontColor=default;" parent="1" source="A8Oj2vjsRHP7mTtxIWq--8" target="iASLkcTXXLzT_OT9ee92-85" edge="1">
          <mxGeometry relative="1" as="geometry" />
        </mxCell>
        <mxCell id="A8Oj2vjsRHP7mTtxIWq--11" style="edgeStyle=orthogonalEdgeStyle;rounded=0;orthogonalLoop=1;jettySize=auto;html=1;exitX=1;exitY=0.25;exitDx=0;exitDy=0;endArrow=oval;endFill=1;labelBackgroundColor=none;strokeColor=#09555B;fontColor=default;" parent="1" source="A8Oj2vjsRHP7mTtxIWq--8" edge="1">
          <mxGeometry relative="1" as="geometry">
            <mxPoint x="-22240" y="-3375.1111111111113" as="targetPoint" />
          </mxGeometry>
        </mxCell>
        <mxCell id="A8Oj2vjsRHP7mTtxIWq--13" style="edgeStyle=orthogonalEdgeStyle;rounded=0;orthogonalLoop=1;jettySize=auto;html=1;exitX=1;exitY=0.75;exitDx=0;exitDy=0;endArrow=oval;endFill=0;labelBackgroundColor=none;strokeColor=#09555B;fontColor=default;" parent="1" source="A8Oj2vjsRHP7mTtxIWq--8" edge="1">
          <mxGeometry relative="1" as="geometry">
            <mxPoint x="-22240" y="-3345.103448275862" as="targetPoint" />
          </mxGeometry>
        </mxCell>
        <mxCell id="A8Oj2vjsRHP7mTtxIWq--15" style="edgeStyle=orthogonalEdgeStyle;rounded=0;orthogonalLoop=1;jettySize=auto;html=1;exitX=1;exitY=0.5;exitDx=0;exitDy=0;endArrow=oval;endFill=0;labelBackgroundColor=none;strokeColor=#09555B;fontColor=default;" parent="1" source="A8Oj2vjsRHP7mTtxIWq--8" edge="1">
          <mxGeometry relative="1" as="geometry">
            <mxPoint x="-22240" y="-3359.9310344827586" as="targetPoint" />
          </mxGeometry>
        </mxCell>
        <mxCell id="A8Oj2vjsRHP7mTtxIWq--17" style="edgeStyle=orthogonalEdgeStyle;rounded=0;orthogonalLoop=1;jettySize=auto;html=1;exitX=0;exitY=0.25;exitDx=0;exitDy=0;endArrow=oval;endFill=0;labelBackgroundColor=none;strokeColor=#09555B;fontColor=default;" parent="1" source="A8Oj2vjsRHP7mTtxIWq--8" edge="1">
          <mxGeometry relative="1" as="geometry">
            <mxPoint x="-22410" y="-3375.142857142857" as="targetPoint" />
          </mxGeometry>
        </mxCell>
        <mxCell id="A8Oj2vjsRHP7mTtxIWq--19" style="edgeStyle=orthogonalEdgeStyle;rounded=0;orthogonalLoop=1;jettySize=auto;html=1;exitX=0;exitY=0.75;exitDx=0;exitDy=0;endArrow=oval;endFill=0;labelBackgroundColor=none;strokeColor=#09555B;fontColor=default;" parent="1" source="A8Oj2vjsRHP7mTtxIWq--8" edge="1">
          <mxGeometry relative="1" as="geometry">
            <mxPoint x="-22410" y="-3345.103448275862" as="targetPoint" />
          </mxGeometry>
        </mxCell>
        <mxCell id="A8Oj2vjsRHP7mTtxIWq--8" value="personale medico" style="rounded=0;whiteSpace=wrap;html=1;labelBackgroundColor=none;fillColor=#FAD9D5;strokeColor=#D0CEE2;fontColor=#1A1A1A;" parent="1" vertex="1">
          <mxGeometry x="-22385" y="-3390" width="120" height="60" as="geometry" />
        </mxCell>
        <mxCell id="A8Oj2vjsRHP7mTtxIWq--12" value="CF" style="text;html=1;align=center;verticalAlign=middle;resizable=0;points=[];autosize=1;strokeColor=none;fillColor=none;labelBackgroundColor=none;fontColor=#1A1A1A;" parent="1" vertex="1">
          <mxGeometry x="-22236.75" y="-3390" width="40" height="30" as="geometry" />
        </mxCell>
        <mxCell id="A8Oj2vjsRHP7mTtxIWq--14" value="flag vice" style="text;html=1;align=center;verticalAlign=middle;resizable=0;points=[];autosize=1;strokeColor=none;fillColor=none;labelBackgroundColor=none;fontColor=#1A1A1A;" parent="1" vertex="1">
          <mxGeometry x="-22261.75" y="-3350" width="70" height="30" as="geometry" />
        </mxCell>
        <mxCell id="A8Oj2vjsRHP7mTtxIWq--16" value="flag primario" style="text;html=1;align=center;verticalAlign=middle;resizable=0;points=[];autosize=1;strokeColor=none;fillColor=none;labelBackgroundColor=none;fontColor=#1A1A1A;" parent="1" vertex="1">
          <mxGeometry x="-22243" y="-3375" width="90" height="30" as="geometry" />
        </mxCell>
        <mxCell id="A8Oj2vjsRHP7mTtxIWq--18" value="DataDiAssunzione" style="text;html=1;align=center;verticalAlign=middle;resizable=0;points=[];autosize=1;strokeColor=none;fillColor=none;labelBackgroundColor=none;fontColor=#1A1A1A;" parent="1" vertex="1">
          <mxGeometry x="-22510" y="-3402" width="120" height="30" as="geometry" />
        </mxCell>
        <mxCell id="A8Oj2vjsRHP7mTtxIWq--20" value="DataPromozioneVice(0,1)" style="text;html=1;align=center;verticalAlign=middle;resizable=0;points=[];autosize=1;strokeColor=none;fillColor=none;labelBackgroundColor=none;fontColor=#1A1A1A;" parent="1" vertex="1">
          <mxGeometry x="-22540" y="-3345" width="160" height="30" as="geometry" />
        </mxCell>
        <mxCell id="A8Oj2vjsRHP7mTtxIWq--23" style="edgeStyle=orthogonalEdgeStyle;rounded=0;orthogonalLoop=1;jettySize=auto;html=1;exitX=0.25;exitY=0;exitDx=0;exitDy=0;endArrow=oval;endFill=1;labelBackgroundColor=none;strokeColor=#09555B;fontColor=default;" parent="1" source="A8Oj2vjsRHP7mTtxIWq--21" edge="1">
          <mxGeometry relative="1" as="geometry">
            <mxPoint x="-22553" y="-2820" as="targetPoint" />
          </mxGeometry>
        </mxCell>
        <mxCell id="A8Oj2vjsRHP7mTtxIWq--85" style="edgeStyle=orthogonalEdgeStyle;rounded=0;orthogonalLoop=1;jettySize=auto;html=1;exitX=0.75;exitY=0;exitDx=0;exitDy=0;strokeColor=#09555B;fontColor=default;startArrow=none;startFill=0;endArrow=oval;endFill=0;labelBackgroundColor=none;" parent="1" source="A8Oj2vjsRHP7mTtxIWq--21" edge="1">
          <mxGeometry relative="1" as="geometry">
            <mxPoint x="-22492.949152542373" y="-2820" as="targetPoint" />
          </mxGeometry>
        </mxCell>
        <mxCell id="A8Oj2vjsRHP7mTtxIWq--87" style="edgeStyle=orthogonalEdgeStyle;rounded=0;orthogonalLoop=1;jettySize=auto;html=1;exitX=1;exitY=0.25;exitDx=0;exitDy=0;strokeColor=#09555B;fontColor=default;endArrow=oval;endFill=0;labelBackgroundColor=none;" parent="1" source="A8Oj2vjsRHP7mTtxIWq--21" edge="1">
          <mxGeometry relative="1" as="geometry">
            <mxPoint x="-22440" y="-2784.9322033898306" as="targetPoint" />
          </mxGeometry>
        </mxCell>
        <mxCell id="A8Oj2vjsRHP7mTtxIWq--21" value="personale amministrativo" style="whiteSpace=wrap;html=1;fillColor=#FAD9D5;strokeColor=#D0CEE2;fontColor=#1A1A1A;rounded=0;labelBackgroundColor=none;" parent="1" vertex="1">
          <mxGeometry x="-22583" y="-2800" width="120" height="60" as="geometry" />
        </mxCell>
        <mxCell id="A8Oj2vjsRHP7mTtxIWq--24" value="CF" style="text;html=1;align=center;verticalAlign=middle;resizable=0;points=[];autosize=1;strokeColor=none;fillColor=none;labelBackgroundColor=none;fontColor=#1A1A1A;" parent="1" vertex="1">
          <mxGeometry x="-22575" y="-2850" width="40" height="30" as="geometry" />
        </mxCell>
        <mxCell id="A8Oj2vjsRHP7mTtxIWq--30" style="edgeStyle=orthogonalEdgeStyle;rounded=0;orthogonalLoop=1;jettySize=auto;html=1;entryX=0;entryY=1;entryDx=0;entryDy=0;endArrow=none;endFill=0;labelBackgroundColor=none;strokeColor=#09555B;fontColor=default;" parent="1" source="A8Oj2vjsRHP7mTtxIWq--28" target="A8Oj2vjsRHP7mTtxIWq--8" edge="1">
          <mxGeometry relative="1" as="geometry">
            <Array as="points">
              <mxPoint x="-22370" y="-3023" />
              <mxPoint x="-22370" y="-3330" />
            </Array>
          </mxGeometry>
        </mxCell>
        <mxCell id="A8Oj2vjsRHP7mTtxIWq--28" value="lavora presso" style="rhombus;whiteSpace=wrap;html=1;rounded=0;labelBackgroundColor=none;fillColor=#FAD9D5;strokeColor=#D0CEE2;fontColor=#1A1A1A;" parent="1" vertex="1">
          <mxGeometry x="-22563" y="-3062.5" width="80" height="80" as="geometry" />
        </mxCell>
        <mxCell id="A8Oj2vjsRHP7mTtxIWq--36" style="edgeStyle=orthogonalEdgeStyle;rounded=0;orthogonalLoop=1;jettySize=auto;html=1;entryX=0.75;entryY=1;entryDx=0;entryDy=0;endArrow=none;endFill=0;labelBackgroundColor=none;strokeColor=#09555B;fontColor=default;" parent="1" source="A8Oj2vjsRHP7mTtxIWq--35" target="iASLkcTXXLzT_OT9ee92-23" edge="1">
          <mxGeometry relative="1" as="geometry" />
        </mxCell>
        <mxCell id="A8Oj2vjsRHP7mTtxIWq--39" value="" style="edgeStyle=orthogonalEdgeStyle;rounded=0;orthogonalLoop=1;jettySize=auto;html=1;endArrow=none;endFill=0;labelBackgroundColor=none;strokeColor=#09555B;fontColor=default;" parent="1" source="A8Oj2vjsRHP7mTtxIWq--35" target="A8Oj2vjsRHP7mTtxIWq--38" edge="1">
          <mxGeometry relative="1" as="geometry" />
        </mxCell>
        <mxCell id="A8Oj2vjsRHP7mTtxIWq--35" value="ha" style="rhombus;whiteSpace=wrap;html=1;labelBackgroundColor=none;fillColor=#FAD9D5;strokeColor=#D0CEE2;fontColor=#1A1A1A;" parent="1" vertex="1">
          <mxGeometry x="-22961" y="-3260" width="80" height="80" as="geometry" />
        </mxCell>
        <mxCell id="A8Oj2vjsRHP7mTtxIWq--40" style="edgeStyle=orthogonalEdgeStyle;rounded=0;orthogonalLoop=1;jettySize=auto;html=1;endArrow=oval;endFill=1;labelBackgroundColor=none;strokeColor=#09555B;fontColor=default;" parent="1" source="A8Oj2vjsRHP7mTtxIWq--38" edge="1">
          <mxGeometry relative="1" as="geometry">
            <mxPoint x="-22768" y="-3170" as="targetPoint" />
          </mxGeometry>
        </mxCell>
        <mxCell id="A8Oj2vjsRHP7mTtxIWq--44" value="" style="edgeStyle=orthogonalEdgeStyle;rounded=0;orthogonalLoop=1;jettySize=auto;html=1;endArrow=none;endFill=0;labelBackgroundColor=none;strokeColor=#09555B;fontColor=default;" parent="1" source="A8Oj2vjsRHP7mTtxIWq--38" target="A8Oj2vjsRHP7mTtxIWq--43" edge="1">
          <mxGeometry relative="1" as="geometry" />
        </mxCell>
        <mxCell id="A8Oj2vjsRHP7mTtxIWq--47" value="" style="edgeStyle=orthogonalEdgeStyle;rounded=0;orthogonalLoop=1;jettySize=auto;html=1;endArrow=none;endFill=0;labelBackgroundColor=none;strokeColor=#09555B;fontColor=default;" parent="1" source="A8Oj2vjsRHP7mTtxIWq--38" target="A8Oj2vjsRHP7mTtxIWq--46" edge="1">
          <mxGeometry relative="1" as="geometry" />
        </mxCell>
        <mxCell id="A8Oj2vjsRHP7mTtxIWq--38" value="PS" style="rounded=0;whiteSpace=wrap;html=1;labelBackgroundColor=none;fillColor=#FAD9D5;strokeColor=#D0CEE2;fontColor=#1A1A1A;" parent="1" vertex="1">
          <mxGeometry x="-22828" y="-3250" width="120" height="60" as="geometry" />
        </mxCell>
        <mxCell id="A8Oj2vjsRHP7mTtxIWq--41" value="Codice" style="text;html=1;align=center;verticalAlign=middle;resizable=0;points=[];autosize=1;strokeColor=none;fillColor=none;labelBackgroundColor=none;fontColor=#1A1A1A;" parent="1" vertex="1">
          <mxGeometry x="-22820" y="-3172" width="60" height="30" as="geometry" />
        </mxCell>
        <mxCell id="A8Oj2vjsRHP7mTtxIWq--45" value="" style="edgeStyle=orthogonalEdgeStyle;rounded=0;orthogonalLoop=1;jettySize=auto;html=1;endArrow=none;endFill=0;labelBackgroundColor=none;strokeColor=#09555B;fontColor=default;" parent="1" source="A8Oj2vjsRHP7mTtxIWq--43" target="A8Oj2vjsRHP7mTtxIWq--1" edge="1">
          <mxGeometry relative="1" as="geometry" />
        </mxCell>
        <mxCell id="A8Oj2vjsRHP7mTtxIWq--43" value="segue" style="rhombus;whiteSpace=wrap;html=1;rounded=0;labelBackgroundColor=none;fillColor=#FAD9D5;strokeColor=#D0CEE2;fontColor=#1A1A1A;" parent="1" vertex="1">
          <mxGeometry x="-22808" y="-3400" width="80" height="80" as="geometry" />
        </mxCell>
        <mxCell id="A8Oj2vjsRHP7mTtxIWq--46" value="segue" style="rhombus;whiteSpace=wrap;html=1;rounded=0;labelBackgroundColor=none;fillColor=#FAD9D5;strokeColor=#D0CEE2;fontColor=#1A1A1A;" parent="1" vertex="1">
          <mxGeometry x="-22608" y="-3260" width="80" height="80" as="geometry" />
        </mxCell>
        <mxCell id="A8Oj2vjsRHP7mTtxIWq--49" style="edgeStyle=orthogonalEdgeStyle;rounded=0;orthogonalLoop=1;jettySize=auto;html=1;entryX=0.366;entryY=0.999;entryDx=0;entryDy=0;entryPerimeter=0;endArrow=none;endFill=0;labelBackgroundColor=none;strokeColor=#09555B;fontColor=default;" parent="1" source="A8Oj2vjsRHP7mTtxIWq--46" target="iASLkcTXXLzT_OT9ee92-49" edge="1">
          <mxGeometry relative="1" as="geometry">
            <Array as="points">
              <mxPoint x="-22568" y="-3488" />
              <mxPoint x="-22567" y="-3488" />
            </Array>
          </mxGeometry>
        </mxCell>
        <mxCell id="A8Oj2vjsRHP7mTtxIWq--53" value="" style="endArrow=oval;html=1;rounded=0;endFill=1;labelBackgroundColor=none;strokeColor=#09555B;fontColor=default;" parent="1" edge="1">
          <mxGeometry width="50" height="50" relative="1" as="geometry">
            <mxPoint x="-22760" y="-3480" as="sourcePoint" />
            <mxPoint x="-22720" y="-3560" as="targetPoint" />
            <Array as="points">
              <mxPoint x="-22840" y="-3480" />
              <mxPoint x="-22840" y="-3560" />
            </Array>
          </mxGeometry>
        </mxCell>
        <mxCell id="A8Oj2vjsRHP7mTtxIWq--57" value="" style="edgeStyle=orthogonalEdgeStyle;rounded=0;orthogonalLoop=1;jettySize=auto;html=1;endArrow=none;endFill=0;labelBackgroundColor=none;strokeColor=#09555B;fontColor=default;" parent="1" source="A8Oj2vjsRHP7mTtxIWq--54" target="A8Oj2vjsRHP7mTtxIWq--56" edge="1">
          <mxGeometry relative="1" as="geometry" />
        </mxCell>
        <mxCell id="A8Oj2vjsRHP7mTtxIWq--54" value="&lt;font style=&quot;font-size: 11px;&quot;&gt;assegnazione&lt;/font&gt;" style="rhombus;whiteSpace=wrap;html=1;fillColor=#FAD9D5;strokeColor=#D0CEE2;fontColor=#1A1A1A;rounded=0;labelBackgroundColor=none;" parent="1" vertex="1">
          <mxGeometry x="-23008" y="-3560" width="80" height="80" as="geometry" />
        </mxCell>
        <mxCell id="A8Oj2vjsRHP7mTtxIWq--58" style="edgeStyle=orthogonalEdgeStyle;rounded=0;orthogonalLoop=1;jettySize=auto;html=1;exitX=0.5;exitY=0;exitDx=0;exitDy=0;endArrow=oval;endFill=1;labelBackgroundColor=none;strokeColor=#09555B;fontColor=default;" parent="1" source="A8Oj2vjsRHP7mTtxIWq--56" edge="1">
          <mxGeometry relative="1" as="geometry">
            <mxPoint x="-23128.075471698114" y="-3570" as="targetPoint" />
          </mxGeometry>
        </mxCell>
        <mxCell id="A8Oj2vjsRHP7mTtxIWq--80" style="edgeStyle=orthogonalEdgeStyle;rounded=0;orthogonalLoop=1;jettySize=auto;html=1;exitX=0.25;exitY=0;exitDx=0;exitDy=0;strokeColor=#09555B;fontColor=default;endArrow=oval;endFill=0;labelBackgroundColor=none;" parent="1" source="A8Oj2vjsRHP7mTtxIWq--56" edge="1">
          <mxGeometry relative="1" as="geometry">
            <mxPoint x="-23158.076923076922" y="-3570" as="targetPoint" />
          </mxGeometry>
        </mxCell>
        <mxCell id="A8Oj2vjsRHP7mTtxIWq--83" style="edgeStyle=orthogonalEdgeStyle;rounded=0;orthogonalLoop=1;jettySize=auto;html=1;exitX=0.75;exitY=0;exitDx=0;exitDy=0;strokeColor=#09555B;fontColor=default;endArrow=oval;endFill=0;labelBackgroundColor=none;" parent="1" source="A8Oj2vjsRHP7mTtxIWq--56" edge="1">
          <mxGeometry relative="1" as="geometry">
            <mxPoint x="-23098.076923076922" y="-3570" as="targetPoint" />
          </mxGeometry>
        </mxCell>
        <mxCell id="A8Oj2vjsRHP7mTtxIWq--96" value="" style="edgeStyle=orthogonalEdgeStyle;rounded=0;orthogonalLoop=1;jettySize=auto;html=1;strokeColor=#09555B;fontColor=default;endArrow=none;endFill=0;labelBackgroundColor=none;" parent="1" source="A8Oj2vjsRHP7mTtxIWq--56" target="A8Oj2vjsRHP7mTtxIWq--95" edge="1">
          <mxGeometry relative="1" as="geometry" />
        </mxCell>
        <mxCell id="A8Oj2vjsRHP7mTtxIWq--56" value="infermieri" style="whiteSpace=wrap;html=1;fillColor=#FAD9D5;strokeColor=#D0CEE2;fontColor=#1A1A1A;rounded=0;labelBackgroundColor=none;" parent="1" vertex="1">
          <mxGeometry x="-23188" y="-3550" width="120" height="60" as="geometry" />
        </mxCell>
        <mxCell id="A8Oj2vjsRHP7mTtxIWq--59" value="CF" style="text;html=1;align=center;verticalAlign=middle;resizable=0;points=[];autosize=1;strokeColor=none;fillColor=none;labelBackgroundColor=none;fontColor=#1A1A1A;" parent="1" vertex="1">
          <mxGeometry x="-23150" y="-3602" width="40" height="30" as="geometry" />
        </mxCell>
        <mxCell id="A8Oj2vjsRHP7mTtxIWq--61" value="&lt;font style=&quot;font-size: 11px;&quot;&gt;assegnazione&lt;/font&gt;" style="rhombus;whiteSpace=wrap;html=1;labelBackgroundColor=none;fillColor=#FAD9D5;strokeColor=#D0CEE2;fontColor=#1A1A1A;" parent="1" vertex="1">
          <mxGeometry x="-22405.84" y="-3558" width="80" height="80" as="geometry" />
        </mxCell>
        <mxCell id="A8Oj2vjsRHP7mTtxIWq--62" style="edgeStyle=orthogonalEdgeStyle;rounded=0;orthogonalLoop=1;jettySize=auto;html=1;entryX=0.157;entryY=-0.007;entryDx=0;entryDy=0;entryPerimeter=0;endArrow=none;endFill=0;labelBackgroundColor=none;strokeColor=#09555B;fontColor=default;" parent="1" source="A8Oj2vjsRHP7mTtxIWq--61" target="A8Oj2vjsRHP7mTtxIWq--8" edge="1">
          <mxGeometry relative="1" as="geometry" />
        </mxCell>
        <mxCell id="A8Oj2vjsRHP7mTtxIWq--64" value="(1,N)" style="text;html=1;align=center;verticalAlign=middle;resizable=0;points=[];autosize=1;strokeColor=none;fillColor=none;labelBackgroundColor=none;fontColor=#1A1A1A;" parent="1" vertex="1">
          <mxGeometry x="-23046" y="-3548" width="50" height="30" as="geometry" />
        </mxCell>
        <mxCell id="A8Oj2vjsRHP7mTtxIWq--65" value="(1,1)" style="text;html=1;align=center;verticalAlign=middle;resizable=0;points=[];autosize=1;strokeColor=none;fillColor=none;labelBackgroundColor=none;fontColor=#1A1A1A;" parent="1" vertex="1">
          <mxGeometry x="-22941" y="-3548" width="50" height="30" as="geometry" />
        </mxCell>
        <mxCell id="A8Oj2vjsRHP7mTtxIWq--66" value="(1,1)" style="text;html=1;align=center;verticalAlign=middle;resizable=0;points=[];autosize=1;strokeColor=none;fillColor=none;labelBackgroundColor=none;fontColor=#1A1A1A;" parent="1" vertex="1">
          <mxGeometry x="-22445" y="-3542" width="50" height="30" as="geometry" />
        </mxCell>
        <mxCell id="A8Oj2vjsRHP7mTtxIWq--67" value="(1,N)" style="text;html=1;align=center;verticalAlign=middle;resizable=0;points=[];autosize=1;strokeColor=none;fillColor=none;labelBackgroundColor=none;fontColor=#1A1A1A;" parent="1" vertex="1">
          <mxGeometry x="-22406.75" y="-3480" width="50" height="30" as="geometry" />
        </mxCell>
        <mxCell id="A8Oj2vjsRHP7mTtxIWq--68" value="(0,1)" style="text;html=1;align=center;verticalAlign=middle;resizable=0;points=[];autosize=1;strokeColor=none;fillColor=none;labelBackgroundColor=none;fontColor=#1A1A1A;" parent="1" vertex="1">
          <mxGeometry x="-23006" y="-3250" width="50" height="30" as="geometry" />
        </mxCell>
        <mxCell id="A8Oj2vjsRHP7mTtxIWq--69" value="(1,1)" style="text;html=1;align=center;verticalAlign=middle;resizable=0;points=[];autosize=1;strokeColor=none;fillColor=none;labelBackgroundColor=none;fontColor=#1A1A1A;" parent="1" vertex="1">
          <mxGeometry x="-22891" y="-3250" width="50" height="30" as="geometry" />
        </mxCell>
        <mxCell id="A8Oj2vjsRHP7mTtxIWq--70" value="(1,N)" style="text;html=1;align=center;verticalAlign=middle;resizable=0;points=[];autosize=1;strokeColor=none;fillColor=none;labelBackgroundColor=none;fontColor=#1A1A1A;" parent="1" vertex="1">
          <mxGeometry x="-22817" y="-3320" width="50" height="30" as="geometry" />
        </mxCell>
        <mxCell id="A8Oj2vjsRHP7mTtxIWq--71" value="(1,1)" style="text;html=1;align=center;verticalAlign=middle;resizable=0;points=[];autosize=1;strokeColor=none;fillColor=none;labelBackgroundColor=none;fontColor=#1A1A1A;" parent="1" vertex="1">
          <mxGeometry x="-22817" y="-3430" width="50" height="30" as="geometry" />
        </mxCell>
        <mxCell id="A8Oj2vjsRHP7mTtxIWq--76" value="(1,N)" style="text;html=1;align=center;verticalAlign=middle;resizable=0;points=[];autosize=1;strokeColor=none;fillColor=none;fontColor=#1A1A1A;labelBackgroundColor=none;" parent="1" vertex="1">
          <mxGeometry x="-22605" y="-3052" width="50" height="30" as="geometry" />
        </mxCell>
        <mxCell id="A8Oj2vjsRHP7mTtxIWq--77" value="(1,1)" style="text;html=1;align=center;verticalAlign=middle;resizable=0;points=[];autosize=1;strokeColor=none;fillColor=none;fontColor=#1A1A1A;labelBackgroundColor=none;" parent="1" vertex="1">
          <mxGeometry x="-22483.5" y="-3052" width="50" height="30" as="geometry" />
        </mxCell>
        <mxCell id="A8Oj2vjsRHP7mTtxIWq--78" value="(1,N)" style="text;html=1;align=center;verticalAlign=middle;resizable=0;points=[];autosize=1;strokeColor=none;fillColor=none;fontColor=#1A1A1A;labelBackgroundColor=none;" parent="1" vertex="1">
          <mxGeometry x="-22655" y="-3252" width="50" height="30" as="geometry" />
        </mxCell>
        <mxCell id="A8Oj2vjsRHP7mTtxIWq--79" value="(1,1)" style="text;html=1;align=center;verticalAlign=middle;resizable=0;points=[];autosize=1;strokeColor=none;fillColor=none;fontColor=#1A1A1A;labelBackgroundColor=none;" parent="1" vertex="1">
          <mxGeometry x="-22617" y="-3300" width="50" height="30" as="geometry" />
        </mxCell>
        <mxCell id="A8Oj2vjsRHP7mTtxIWq--81" value="Nome" style="text;html=1;align=center;verticalAlign=middle;resizable=0;points=[];autosize=1;strokeColor=none;fillColor=none;fontColor=#1A1A1A;labelBackgroundColor=none;" parent="1" vertex="1">
          <mxGeometry x="-23210" y="-3602" width="60" height="30" as="geometry" />
        </mxCell>
        <mxCell id="A8Oj2vjsRHP7mTtxIWq--84" value="Cognome" style="text;html=1;align=center;verticalAlign=middle;resizable=0;points=[];autosize=1;strokeColor=none;fillColor=none;fontColor=#1A1A1A;labelBackgroundColor=none;" parent="1" vertex="1">
          <mxGeometry x="-23116" y="-3600" width="80" height="30" as="geometry" />
        </mxCell>
        <mxCell id="A8Oj2vjsRHP7mTtxIWq--86" value="nome" style="text;html=1;align=center;verticalAlign=middle;resizable=0;points=[];autosize=1;strokeColor=none;fillColor=none;fontColor=#1A1A1A;labelBackgroundColor=none;" parent="1" vertex="1">
          <mxGeometry x="-22518.5" y="-2850" width="50" height="30" as="geometry" />
        </mxCell>
        <mxCell id="A8Oj2vjsRHP7mTtxIWq--88" value="cognome" style="text;html=1;align=center;verticalAlign=middle;resizable=0;points=[];autosize=1;strokeColor=none;fillColor=none;fontColor=#1A1A1A;labelBackgroundColor=none;" parent="1" vertex="1">
          <mxGeometry x="-22440" y="-2802" width="70" height="30" as="geometry" />
        </mxCell>
        <mxCell id="A8Oj2vjsRHP7mTtxIWq--91" value="nome" style="text;html=1;align=center;verticalAlign=middle;resizable=0;points=[];autosize=1;strokeColor=none;fillColor=none;fontColor=#1A1A1A;labelBackgroundColor=none;" parent="1" vertex="1">
          <mxGeometry x="-22055" y="-2482" width="50" height="30" as="geometry" />
        </mxCell>
        <mxCell id="A8Oj2vjsRHP7mTtxIWq--92" value="cognome" style="text;html=1;align=center;verticalAlign=middle;resizable=0;points=[];autosize=1;strokeColor=none;fillColor=none;fontColor=#1A1A1A;labelBackgroundColor=none;" parent="1" vertex="1">
          <mxGeometry x="-21995" y="-2482" width="70" height="30" as="geometry" />
        </mxCell>
        <mxCell id="A8Oj2vjsRHP7mTtxIWq--97" style="edgeStyle=orthogonalEdgeStyle;rounded=0;orthogonalLoop=1;jettySize=auto;html=1;entryX=0.75;entryY=0;entryDx=0;entryDy=0;strokeColor=#09555B;fontColor=default;endArrow=none;endFill=0;labelBackgroundColor=none;" parent="1" source="A8Oj2vjsRHP7mTtxIWq--95" target="iASLkcTXXLzT_OT9ee92-1" edge="1">
          <mxGeometry relative="1" as="geometry" />
        </mxCell>
        <mxCell id="A8Oj2vjsRHP7mTtxIWq--95" value="lavora presso" style="rhombus;whiteSpace=wrap;html=1;fillColor=#FAD9D5;strokeColor=#D0CEE2;fontColor=#1A1A1A;rounded=0;labelBackgroundColor=none;" parent="1" vertex="1">
          <mxGeometry x="-23281" y="-3150" width="80" height="80" as="geometry" />
        </mxCell>
        <mxCell id="A8Oj2vjsRHP7mTtxIWq--98" value="(1,1)" style="text;html=1;align=center;verticalAlign=middle;resizable=0;points=[];autosize=1;strokeColor=none;fillColor=none;fontColor=#1A1A1A;labelBackgroundColor=none;" parent="1" vertex="1">
          <mxGeometry x="-23290" y="-3180" width="50" height="30" as="geometry" />
        </mxCell>
        <mxCell id="A8Oj2vjsRHP7mTtxIWq--99" value="(1,N)" style="text;html=1;align=center;verticalAlign=middle;resizable=0;points=[];autosize=1;strokeColor=none;fillColor=none;fontColor=#1A1A1A;labelBackgroundColor=none;" parent="1" vertex="1">
          <mxGeometry x="-23200" y="-3110" width="50" height="30" as="geometry" />
        </mxCell>
        <mxCell id="A8Oj2vjsRHP7mTtxIWq--111" style="edgeStyle=orthogonalEdgeStyle;rounded=0;orthogonalLoop=1;jettySize=auto;html=1;strokeColor=#09555B;fontColor=default;endArrow=none;endFill=0;labelBackgroundColor=none;" parent="1" source="A8Oj2vjsRHP7mTtxIWq--101" target="A8Oj2vjsRHP7mTtxIWq--112" edge="1">
          <mxGeometry relative="1" as="geometry">
            <mxPoint x="-22800" y="-2472" as="targetPoint" />
          </mxGeometry>
        </mxCell>
        <mxCell id="A8Oj2vjsRHP7mTtxIWq--101" value="laboratorio&lt;div&gt;interno&lt;/div&gt;" style="rounded=0;whiteSpace=wrap;html=1;labelBackgroundColor=none;fillColor=#FAD9D5;strokeColor=#D0CEE2;fontColor=#1A1A1A;" parent="1" vertex="1">
          <mxGeometry x="-22996" y="-2502" width="120" height="60" as="geometry" />
        </mxCell>
        <mxCell id="A8Oj2vjsRHP7mTtxIWq--103" value="(1,1)" style="text;html=1;align=center;verticalAlign=middle;resizable=0;points=[];autosize=1;strokeColor=none;fillColor=none;fontColor=#1A1A1A;labelBackgroundColor=none;" parent="1" vertex="1">
          <mxGeometry x="-22936" y="-2575" width="50" height="30" as="geometry" />
        </mxCell>
        <mxCell id="A8Oj2vjsRHP7mTtxIWq--104" style="edgeStyle=orthogonalEdgeStyle;rounded=0;orthogonalLoop=1;jettySize=auto;html=1;exitX=0;exitY=0;exitDx=0;exitDy=0;align=center;verticalAlign=middle;fontFamily=Helvetica;fontSize=11;fontColor=default;labelBackgroundColor=none;endArrow=oval;endFill=1;strokeColor=#09555B;" parent="1" edge="1">
          <mxGeometry relative="1" as="geometry">
            <mxPoint x="-22981.177027027028" y="-2522" as="targetPoint" />
            <mxPoint x="-22981.15" y="-2502" as="sourcePoint" />
          </mxGeometry>
        </mxCell>
        <mxCell id="A8Oj2vjsRHP7mTtxIWq--105" value="Code" style="text;html=1;align=center;verticalAlign=middle;resizable=0;points=[];autosize=1;strokeColor=none;fillColor=none;fontFamily=Helvetica;fontSize=11;labelBackgroundColor=none;rounded=0;fontColor=#1A1A1A;" parent="1" vertex="1">
          <mxGeometry x="-23132" y="-2692" width="50" height="30" as="geometry" />
        </mxCell>
        <mxCell id="A8Oj2vjsRHP7mTtxIWq--114" style="edgeStyle=orthogonalEdgeStyle;rounded=0;orthogonalLoop=1;jettySize=auto;html=1;entryX=0.25;entryY=0;entryDx=0;entryDy=0;strokeColor=#09555B;fontColor=default;exitX=0.5;exitY=0;exitDx=0;exitDy=0;endArrow=none;endFill=0;labelBackgroundColor=none;" parent="1" source="A8Oj2vjsRHP7mTtxIWq--112" target="iASLkcTXXLzT_OT9ee92-44" edge="1">
          <mxGeometry relative="1" as="geometry" />
        </mxCell>
        <mxCell id="A8Oj2vjsRHP7mTtxIWq--112" value="presso" style="rhombus;whiteSpace=wrap;html=1;strokeColor=#D0CEE2;fontColor=#1A1A1A;fillColor=#FAD9D5;labelBackgroundColor=none;" parent="1" vertex="1">
          <mxGeometry x="-22786" y="-2512" width="80" height="80" as="geometry" />
        </mxCell>
        <mxCell id="A8Oj2vjsRHP7mTtxIWq--115" value="(0,N)" style="text;html=1;align=center;verticalAlign=middle;resizable=0;points=[];autosize=1;strokeColor=none;fillColor=none;labelBackgroundColor=none;rounded=0;fontColor=#1A1A1A;" parent="1" vertex="1">
          <mxGeometry x="-22836" y="-2472" width="50" height="30" as="geometry" />
        </mxCell>
        <mxCell id="A8Oj2vjsRHP7mTtxIWq--116" value="(0,1)" style="text;html=1;align=center;verticalAlign=middle;resizable=0;points=[];autosize=1;strokeColor=none;fillColor=none;fontColor=#1A1A1A;labelBackgroundColor=none;" parent="1" vertex="1">
          <mxGeometry x="-22706" y="-2532" width="50" height="30" as="geometry" />
        </mxCell>
        <mxCell id="A8Oj2vjsRHP7mTtxIWq--121" style="edgeStyle=orthogonalEdgeStyle;rounded=0;orthogonalLoop=1;jettySize=auto;html=1;entryX=0;entryY=0.5;entryDx=0;entryDy=0;strokeColor=#09555B;fontColor=default;endArrow=none;endFill=0;labelBackgroundColor=none;" parent="1" source="A8Oj2vjsRHP7mTtxIWq--118" target="A8Oj2vjsRHP7mTtxIWq--101" edge="1">
          <mxGeometry relative="1" as="geometry">
            <Array as="points">
              <mxPoint x="-22996" y="-2467" />
            </Array>
          </mxGeometry>
        </mxCell>
        <mxCell id="A8Oj2vjsRHP7mTtxIWq--118" value="di apertura&lt;div&gt;int&lt;/div&gt;" style="rhombus;whiteSpace=wrap;html=1;fillColor=#FAD9D5;strokeColor=#D0CEE2;fontColor=#1A1A1A;rounded=0;labelBackgroundColor=none;" parent="1" vertex="1">
          <mxGeometry x="-23500" y="-2507" width="80" height="80" as="geometry" />
        </mxCell>
        <mxCell id="A8Oj2vjsRHP7mTtxIWq--122" value="(1,N)" style="text;html=1;align=center;verticalAlign=middle;resizable=0;points=[];autosize=1;strokeColor=none;fillColor=none;fontColor=#1A1A1A;labelBackgroundColor=none;" parent="1" vertex="1">
          <mxGeometry x="-23420" y="-2462" width="50" height="30" as="geometry" />
        </mxCell>
        <mxCell id="A8Oj2vjsRHP7mTtxIWq--123" value="(0,N)" style="text;html=1;align=center;verticalAlign=middle;resizable=0;points=[];autosize=1;strokeColor=none;fillColor=none;fontColor=#1A1A1A;labelBackgroundColor=none;" parent="1" vertex="1">
          <mxGeometry x="-23510" y="-2537" width="50" height="30" as="geometry" />
        </mxCell>
        <mxCell id="zXHUOZJbIqONJQrnkCSE-7" value="aggiungo ospedale?" style="text;html=1;align=center;verticalAlign=middle;resizable=0;points=[];autosize=1;strokeColor=none;fillColor=none;labelBackgroundColor=none;fontColor=#1A1A1A;" parent="1" vertex="1">
          <mxGeometry x="-23226" y="-3470" width="130" height="30" as="geometry" />
        </mxCell>
        <mxCell id="Yv-3Ae9fbyYzoChkCc4W-2" value="&lt;span style=&quot;color: rgb(29, 53, 87); font-size: 11px;&quot;&gt;&amp;nbsp;DATETIMEes&lt;/span&gt;" style="text;html=1;align=center;verticalAlign=middle;resizable=0;points=[];autosize=1;strokeColor=none;fillColor=none;labelBackgroundColor=none;fontColor=#1A1A1A;" parent="1" vertex="1">
          <mxGeometry x="-22261.75" y="-2406" width="90" height="30" as="geometry" />
        </mxCell>
        <mxCell id="Yv-3Ae9fbyYzoChkCc4W-3" value="SO-S" style="rhombus;whiteSpace=wrap;html=1;labelBackgroundColor=none;fillColor=#FAD9D5;strokeColor=#D0CEE2;fontColor=#1A1A1A;" parent="1" vertex="1">
          <mxGeometry x="-22896" y="-2780" width="80" height="80" as="geometry" />
        </mxCell>
        <mxCell id="Yv-3Ae9fbyYzoChkCc4W-4" value="sala operatoria" style="rounded=0;whiteSpace=wrap;html=1;labelBackgroundColor=none;fillColor=#FAD9D5;strokeColor=#D0CEE2;fontColor=#1A1A1A;" parent="1" vertex="1">
          <mxGeometry x="-23068" y="-2787" width="120" height="60" as="geometry" />
        </mxCell>
        <mxCell id="Yv-3Ae9fbyYzoChkCc4W-5" value="" style="endArrow=none;html=1;rounded=0;entryX=0;entryY=0.5;entryDx=0;entryDy=0;labelBackgroundColor=none;strokeColor=#09555B;fontColor=default;" parent="1" target="Yv-3Ae9fbyYzoChkCc4W-3" edge="1">
          <mxGeometry width="50" height="50" relative="1" as="geometry">
            <mxPoint x="-22948" y="-2740" as="sourcePoint" />
            <mxPoint x="-23000" y="-2790" as="targetPoint" />
            <Array as="points">
              <mxPoint x="-22911" y="-2740" />
            </Array>
          </mxGeometry>
        </mxCell>
        <mxCell id="Yv-3Ae9fbyYzoChkCc4W-6" value="" style="endArrow=none;html=1;rounded=0;exitX=0.5;exitY=1;exitDx=0;exitDy=0;labelBackgroundColor=none;strokeColor=#09555B;fontColor=default;entryX=0.106;entryY=0;entryDx=0;entryDy=0;entryPerimeter=0;" parent="1" source="Yv-3Ae9fbyYzoChkCc4W-3" target="iASLkcTXXLzT_OT9ee92-5" edge="1">
          <mxGeometry width="50" height="50" relative="1" as="geometry">
            <mxPoint x="-23100" y="-2830" as="sourcePoint" />
            <mxPoint x="-23050" y="-2880" as="targetPoint" />
            <Array as="points">
              <mxPoint x="-22856" y="-2670" />
              <mxPoint x="-22790" y="-2670" />
            </Array>
          </mxGeometry>
        </mxCell>
        <mxCell id="Yv-3Ae9fbyYzoChkCc4W-7" value="(0,1)" style="text;html=1;align=center;verticalAlign=middle;resizable=0;points=[];autosize=1;strokeColor=none;fillColor=none;labelBackgroundColor=none;fontColor=#1A1A1A;" parent="1" vertex="1">
          <mxGeometry x="-22858" y="-2695" width="50" height="30" as="geometry" />
        </mxCell>
        <mxCell id="Yv-3Ae9fbyYzoChkCc4W-8" value="(1,1)" style="text;html=1;align=center;verticalAlign=middle;resizable=0;points=[];autosize=1;strokeColor=none;fillColor=none;labelBackgroundColor=none;fontColor=#1A1A1A;" parent="1" vertex="1">
          <mxGeometry x="-22956" y="-2765" width="50" height="30" as="geometry" />
        </mxCell>
        <mxCell id="Yv-3Ae9fbyYzoChkCc4W-9" value="" style="endArrow=oval;html=1;rounded=0;endFill=1;exitX=0.5;exitY=0;exitDx=0;exitDy=0;labelBackgroundColor=none;strokeColor=#09555B;fontColor=default;" parent="1" source="Yv-3Ae9fbyYzoChkCc4W-4" edge="1">
          <mxGeometry width="50" height="50" relative="1" as="geometry">
            <mxPoint x="-23010" y="-2790" as="sourcePoint" />
            <mxPoint x="-23008" y="-2800" as="targetPoint" />
          </mxGeometry>
        </mxCell>
        <mxCell id="Yv-3Ae9fbyYzoChkCc4W-10" value="codice" style="text;html=1;align=center;verticalAlign=middle;resizable=0;points=[];autosize=1;strokeColor=none;fillColor=none;labelBackgroundColor=none;fontColor=#1A1A1A;" parent="1" vertex="1">
          <mxGeometry x="-23038" y="-2827" width="60" height="30" as="geometry" />
        </mxCell>
        <mxCell id="Yv-3Ae9fbyYzoChkCc4W-11" value="&lt;div style=&quot;color: rgb(29, 53, 87); font-size: 11px;&quot;&gt;utilizzo:&lt;/div&gt;&lt;div style=&quot;color: rgb(29, 53, 87); font-size: 11px;&quot;&gt;sala op&lt;/div&gt;&lt;div style=&quot;color: rgb(29, 53, 87); font-size: 11px;&quot;&gt;da letto&lt;/div&gt;&lt;div style=&quot;color: rgb(29, 53, 87); font-size: 11px;&quot;&gt;lab&amp;nbsp;&lt;/div&gt;" style="text;html=1;align=center;verticalAlign=middle;resizable=0;points=[];autosize=1;strokeColor=none;fillColor=none;labelBackgroundColor=none;fontColor=#1A1A1A;" parent="1" vertex="1">
          <mxGeometry x="-22881" y="-2607" width="60" height="70" as="geometry" />
        </mxCell>
        <mxCell id="Yv-3Ae9fbyYzoChkCc4W-12" style="edgeStyle=orthogonalEdgeStyle;rounded=0;orthogonalLoop=1;jettySize=auto;html=1;endArrow=oval;endFill=0;exitX=0.001;exitY=0.829;exitDx=0;exitDy=0;exitPerimeter=0;labelBackgroundColor=none;fontColor=default;strokeColor=#09555B;" parent="1" edge="1">
          <mxGeometry relative="1" as="geometry">
            <mxPoint x="-22823" y="-2590" as="targetPoint" />
            <mxPoint x="-22803" y="-2590" as="sourcePoint" />
          </mxGeometry>
        </mxCell>
      </root>
    </mxGraphModel>
  </diagram>
</mxfile>
